<svg xmlns="http://www.w3.org/2000/svg" xmlns:xlink="http://www.w3.org/1999/xlink" width="150" height="232" viewBox="0 0 150 232">
    <defs>
        <path id="a" d="M.143.2h11.076v18.118H.143z"/>
    </defs>
    <g fill="none" fill-rule="evenodd">
        <path fill="#08131A" d="M142.054 232H7.946C3.558 232 0 228.453 0 224.078V7.922C0 3.547 3.558 0 7.946 0h134.108C146.442 0 150 3.547 150 7.922v216.156c0 4.375-3.558 7.922-7.946 7.922"/>
        <path fill="#FFF" d="M85.247 143.945l1.052-.762-.07-.314c-.494.085-1.012.302-1.477.22-.57-.1-1.225-.332-1.598-.734-.294-.317-.216-.978-.304-1.486l.366-.119.592 1.062c.538-1.256.433-2.763-.16-4.588-.752-2.315-2.594-3.368-4.9-4.023.407-.361.723-.575.957-.858.884-1.071 1.786-2.133 2.583-3.268.255-.364.205-.942.295-1.422l-1.022.767-.203-1.52-.347.007-.392 1.412-.808-1.206-.37-.013c1.172 3.518-1.494 4.698-3.26 6.327-.78-1.873-1.413-3.635-2.255-5.29-.296-.582-1.106-.903-1.682-1.343-.224.64-.462 1.275-.664 1.922-.058.188.003.41-.018.615-.407 3.883-.82 7.766-1.223 11.65-.032.31-.004.625-.004 1.041l1-.387-.071 1.48c3.408-1.403 4.182-4.287 4.696-7.259 1.523-.013 2.58.727 3.375 2.4.618 1.3 1.09 2.67 1.727 3.96 1.008 2.04 3.118 2.912 5.284 2.252.321-.098.607-.315.909-.478l-.079-.268-1.929.223M70.86 123.95c3.185-1.798 3.448-4.783 3.597-7.81 1.646-.324 2.637.596 3.446 1.67.8 1.062 1.44 2.248 2.13 3.392.882 1.467 2.064 2.483 3.852 2.547 1.14.041 2.19-.225 3.012-1.017l-.088-.284a4291 4291 0 0 1-1.93.523l.966-1.1c-.992.108-1.817.358-2.587.242-1.016-.153-1.35-.987-.993-2.005l1.07.806c.065-1.992-.531-3.555-1.429-4.97-1.119-1.766-2.907-2.506-5.126-2.703.32-.4.504-.67.727-.903 1.158-1.21 2.064-2.563 2.39-4.233.053-.277-.079-.591-.125-.889-.207.225-.467.42-.608.68-.18.332-.262.716-.386 1.077.089-1.828.089-1.828-.628-2.295l-.196 1.57-.898-1.243-.322.09c.117 1.244 1.005 2.503-.011 3.72-.842 1.01-1.645 2.05-2.39 2.984-1.049-1.754-1.925-3.406-2.998-4.917-.395-.557-1.257-.782-1.906-1.158-.124.664-.41 1.345-.346 1.99.41 4.13.926 8.25.564 12.415-.021.246.078.502.139.855l.924-.478.15 1.444M41.444 104.516l.93-.782c1.865-1.572 2.14-3.735 2.21-5.971.042-1.36.72-1.813 1.906-1.05.896.578 1.672 1.405 2.352 2.242.817 1.008 1.411 2.195 2.217 3.214 1.327 1.676 3.326 2.125 5.269 1.272.341-.15.624-.432.934-.653l-.12-.237-1.948.596.93-1.07-.135-.234c-.498.186-.999.528-1.492.516-.574-.014-1.252-.207-1.673-.57-.335-.287-.35-.946-.506-1.44l.305-.1.889.658c-.376-4.132-2.072-7.032-6.723-7.304.365-.46.587-.758.827-1.04 1.032-1.22 1.905-2.525 2.123-4.153.038-.285-.077-.591-.12-.887-.184.245-.404.47-.54.74-.122.238-.139.528-.225.788-.07.211-.175.41-.264.615.126-2.062.126-2.062-.543-2.616l-.152 1.596-1.003-1.154-.392.019c1.903 3.279-.683 4.806-2.077 6.74-1.07-1.656-1.982-3.127-2.964-4.548-.3-.435-.758-.791-1.208-1.087-.838-.552-1.259-.304-1.25.72.003.511.117 1.02.159 1.532.321 3.923.637 7.847.956 11.77.022.281.056.561.094.932l.98-.564.254 1.51M109.828 131.66c-.347 1.62-1.358 2.678-2.965 3.436l-.366-6.26c.932-.22 1.79-.1 2.567.52.754.6.957 1.404.764 2.304m6.228 10.766c-1.33.181-1.878-.139-2.256-1.1.914.316 1.723 1.04 2.914.436-.38-.151-.577-.27-.79-.309-1.276-.235-1.876-.693-1.953-1.979-.128-2.126-.612-3.878-3.405-4.108.45-.328.641-.449.812-.594 1.597-1.355 2.535-3.063 2.578-5.172.026-1.268-.477-1.796-1.702-1.819-1.23-.022-2.462.086-3.693.152-.923.049-2.072.495-2.718.102-1.177-.716-2.224.362-3.267-.213.922 1.156.945 1.164.811 1.574-1.472 4.518-.763 8.806 1.377 12.935.18.348.513.618.775.924l.295-.116.47-2.83 1.292 1.142.205-.21-1.101-5.487c1.707.14 2.757.669 3.374 2.115a20.519 20.519 0 0 0 2.238 3.922c.533.738 1.338 1.412 2.169 1.774 1.502.657 3.78-.392 4.208-1.9-.935.28-1.767.642-2.633.76M104.9 88.045c.013-.158.346-.397.545-.413 1.614-.13 2.85 1.367 2.528 2.953-.266 1.304-1.92 3.174-3.48 3.155.128-1.901.243-3.8.407-5.695m-3.493 12.507c.164.459.493.859.746 1.286l.298-.097.82-2.828 1.077 1.43.279-.15c-.06-.902-.11-1.806-.18-2.708-.073-.938-.166-1.875-.252-2.83 1.731.068 2.502.72 3.05 2.147.662 1.723 1.313 3.475 2.216 5.075 1.068 1.893 3.873 2.181 5.476.727.17-.154.248-.408.534-.896-.898.231-1.469.452-2.055.509a5.38 5.38 0 0 1-1.725-.116c-.863-.204-1.028-.452-1.016-1.138 1.732.971 1.732.971 2.614.644-.217-.122-.37-.247-.544-.3-1.337-.409-1.775-.96-1.812-2.352a33.882 33.882 0 0 1-.002-1.853c.02-.766-.298-1.318-.969-1.68-.53-.285-1.055-.58-1.691-.932.356-.19.599-.3.821-.441 1.748-1.114 2.806-2.71 3.118-4.743.198-1.293-.174-1.854-1.423-2.023-1.455-.196-2.936-.186-4.404-.284-.925-.062-1.937.252-2.695-.611-.081-.093-.324-.048-.492-.062-.515-.045-1.03-.099-1.546-.124-.195-.009-.394.052-.869.122l1.249.817c-.034.155-.038.297-.095.414-2.077 4.256-2.106 8.598-.528 12.997M71.88 101.474l.924-.443.125 1.595c1.423-1.28 2.791-2.171 3.077-3.933.158-.98.39-1.954.467-2.94.054-.693.371-.803.933-.707 1.226.208 1.99 1.054 2.605 2.017.718 1.126 1.22 2.406 2.033 3.45.62.797 1.493 1.527 2.41 1.932 1.045.46 2.23.339 3.179-.597h-1.286l1.037-.92c-1.053.085-1.857.306-2.598.172-.99-.179-1.288-1.007-.858-1.938.252.208.496.41.85.7.31-1.399-.193-2.53-.6-3.66-.857-2.387-2.78-3.41-5.236-3.8.194-.258.28-.401.394-.517 1.239-1.26 2.366-2.59 2.749-4.38.047-.218-.071-.47-.113-.708-.184.15-.436.263-.538.456-.223.422-.37.884-.548 1.33-.111-.818.521-1.648-.424-2.494l-.277 1.598-.814-1.136-.338-.003c1.328 3.199-.895 4.634-2.522 6.243-.93-1.665-1.695-3.226-2.655-4.657-.36-.535-1.174-.765-1.78-1.135-.124.636-.353 1.273-.353 1.909 0 3.87.052 7.74.091 11.61.003.283.038.567.066.956"/>
        <g transform="translate(40.425 127.312)">
            <mask id="b" fill="#fff">
                <use xlink:href="#a"/>
            </mask>
            <path fill="#FFF" d="M5.35 7.682L4.145 3.48h2.399c.462 1.56.003 3.325-1.194 4.202m5.024-5.13c-.988-.491-2.087-.91-3.175-1.015-1.689-.164-3.406-.043-5.186-.043-.243-.397-.02-1.35-.919-1.291C1.015.86 1.02 1.407.868 1.908c-.133.44-.606.814-.644 1.242-.298 3.403.24 6.71 1.363 9.92.245.7.558 1.454 1.06 1.97.737.759 1.322 1.522 1.578 2.57.075.306.553.71.845.709.27-.002.575-.46.788-.77.124-.178.1-.461.136-.698.383-2.572.374-5.128-.268-7.668-.227-.9-.114-.994.828-.892l-.335 1.08c.245.05.383.122.502.097 1.858-.384 4.554-3.55 4.497-5.44-.015-.515-.412-1.26-.844-1.475" mask="url(#b)"/>
        </g>
        <path fill="#FFF" d="M63.45 131.96c-.042 2.209-.66 4.271-1.93 6.088-.27.387-.853.556-1.291.825-.154-.43-.345-.85-.448-1.291-.069-.292-.013-.614-.013-.923l-.207-.044c.392-1.73.734-3.475 1.2-5.186.201-.739.529-1.506 1.64-1.293 1.12.216 1.064 1.068 1.05 1.823m2.287-2.665c-.165.231-.338.457-.492.695-.068.105-.097.235-.176.436-.255-.219-.45-.396-.656-.561-2.823-2.268-6.298-2.162-8.275 1.304-1.172 2.057-1.752 4.144-1.106 6.408l-1.594.94.173.376c.335-.073.667-.156 1.004-.215.315-.056.633-.085.95-.126.025.325.062.65.074.977.013.365.003.73.003 1.096l.217.034.652-.962 1.169 1.083c.575-.09 1.131-.201 1.693-.262 1.482-.16 2.944-.406 4.096-1.448 1.645-1.488 2.773-3.366 3.235-5.492.249-1.143-.102-2.43-.269-3.64-.033-.241-.455-.43-.698-.643M62.097 96.133l2.076-5.48.267-.004 1.538 5.484m.01-6.456c-.526-1.281-1.133-2.16-2.699-2.334-1.619-.18-2.251-.06-3.029 1.368-.123.226-.303.42-.367.506l-2-.417-.05.32c1.467.864 1.417.849.835 2.717-.907 2.912-1.737 5.86-1.278 8.954.077.52.629 1.124 1.12 1.368.27.133.903-.362 1.311-.658.195-.14.259-.472.363-.725.366-.883.692-1.785 1.105-2.646.12-.25.472-.535.728-.546 1.127-.048 2.258.002 3.388.009.697.004 1.063.357 1.174 1.035.126.777.246 1.559.443 2.32.064.247.362.434.552.649.234-.217.62-.402.672-.656.127-.628.206-1.302.12-1.932-.442-3.198-1.157-6.326-2.389-9.332M62.586 111.645l.297.017.955 5.497-3.774-.363 2.522-5.151m-4.04-1.893l-1.983-.633-.251.51.386.157c1.335.546 1.27.517.695 1.822-1.27 2.882-2.43 5.79-2.458 9.038-.008.953.383 1.624 1.075 1.7.507.055 1.24-.562 1.62-1.068.59-.783.934-1.744 1.446-2.591.143-.237.515-.487.773-.478 1.094.036 2.183.178 3.276.259.714.053 1.023.445 1.071 1.127.056.786.108 1.575.226 2.352.034.224.298.589.443.582.251-.012.625-.21.709-.424.197-.5.354-1.055.348-1.587-.04-3.797-.568-7.517-1.91-11.091-.111-.3-.319-.659-.582-.79-2.199-1.09-3.21-.846-4.814 1.084-.038.045-.122.05-.07.031M101.781 116.591c1.55 1.702 3.043 3.28 4.455 4.928.4.466.705.515 1.09.157.27-.25.504-.576.656-.912 1.647-3.664 2.418-7.433 1.257-11.406-.077-.263-.28-.49-.423-.733l-.253.1v1.076l-1.102-1.016-.298.182c1.415 1.56 1.346 3.462 1.353 5.32a12.168 12.168 0 0 1-1.26 5.476c-.184-.711-.336-1.433-.559-2.131-.58-1.82-1.041-3.697-1.828-5.425-.933-2.05-2.489-3.611-4.712-4.34-.375-.124-.794-.113-1.193-.164l-.277.244c1.726.73 1.003 1.835.75 2.91-.626 2.643-.762 5.289.092 7.925.41 1.265.76 2.55 1.153 3.82.06.195.207.363.426.735l.245-1.418 1.133.42.302-.14c-.651-1.779-1.493-3.532-1.007-5.608M97.62 138.592c-.935.812-1.947 1.438-3.232 1.616-.208-1.43-.38-2.72-.589-4.003-.093-.577.045-.873.673-1.004a19.613 19.613 0 0 0 2.767-.788c.32-.118.539-.516.804-.786-1.371.124-2.519.434-3.683.653-.292.055-.888-.131-.922-.294-.287-1.39-.477-2.8-.726-4.396l5.508-.416-.347-.386.559-.318-.253-.376h-2.357l.673-.922-.17-.264c-1.145.602-2.236 1.377-3.45 1.76-1.249.393-2.618.403-3.851.57.136.37.48.815.401 1.165-.736 3.294-.123 6.493.67 9.66.233.924.81 1.802 1.382 2.59.405.556 1.015.692 1.467-.133.17-.311.473-.605.787-.773 1.234-.663 2.514-1.242 3.742-1.914.629-.344 1.185-.818 1.864-1.296-.946-.546-1.027-.546-1.718.055M91.43 101.7c.717-1.053 1.806-1.38 2.9-1.787 1.328-.495 2.75-.847 3.84-2.013-.622-.653-1.073-.356-1.528.004-.982.78-2.08 1.278-3.422 1.425-.088-1.517-.198-2.948-.226-4.38-.004-.208.35-.55.594-.613.994-.26 2.02-.398 3.012-.664.296-.08.522-.427.78-.652-1.377.05-2.55.223-3.726.377-.553.072-.928-.087-.956-.748-.045-1.062-.133-2.122-.208-3.183-.037-.535.14-.803.74-.842 1.495-.094 2.993-.514 4.459.175.075.035.215-.068.428-.143l-.83-.734.767-.098.02-.314-2.388-.224.736-.854-.148-.432c-2.29 1.598-4.735 2.469-7.269 1.826 0 .718.046 1.291-.012 1.853-.06.577-.277 1.138-.33 1.715-.298 3.212-.155 6.382 1.003 9.443.347.917 1.369 1.444 1.764.863M92.078 120.448c1.114-.663 2.31-1.186 3.44-1.825.177-.1.19-.49.28-.745-.286-.02-.594-.117-.851-.04-.242.072-.41.362-.644.494-.96.544-1.934 1.063-3.068 1.682-.225-1.737-.434-3.154-.563-4.577-.018-.202.314-.562.552-.639.978-.315 1.993-.512 2.968-.834.303-.1.522-.458.78-.698l-.28-.13c-1.093.231-2.186.458-3.278.694-.676.147-1.12.04-1.186-.794-.083-1.024-.252-2.041-.403-3.058-.084-.558.112-.83.69-.877 1.483-.121 2.955-.705 4.454-.083.056.023.163-.078.323-.162l-.528-.587.547-.285-.04-.242h-2.476l.74-.987-.149-.236c-1.167.571-2.285 1.309-3.514 1.668-1.257.367-2.623.363-3.716.495.09.439.33.92.252 1.342-.742 3.977-.211 7.797 1.329 11.5.396.952 1.28 1.227 1.833.75a17.772 17.772 0 0 1 2.508-1.826M53.93 121.812l-1.513-.636c.369-.419.727-.78 1.022-1.188.09-.123.005-.372 0-.563-.215.017-.456-.02-.638.068-.17.08-.258.317-.416.444-1.27 1.021-2.653 1.692-4.328 1.478-.034-.191-.064-.26-.055-.324.674-4.774-.75-9.16-2.526-13.472-.139-.335-.55-.557-.937-.93-.935 4.544-.96 15.269-.067 16.992l1.094-.507-.53 1.29.197.2c.685-.472 1.364-.954 2.058-1.413.368-.244.75-.603 1.149-.638 1.119-.099 2.25-.045 3.377-.072.722-.018 1.517.157 2.112-.73"/>
    </g>
</svg>
