<svg xmlns="http://www.w3.org/2000/svg" width="150" height="231" viewBox="0 0 150 231">
    <g fill="none" fill-rule="evenodd">
        <path fill="#08131A" d="M142.054 230.718H7.946c-4.389 0-7.946-3.524-7.946-7.87V8.075C0 3.73 3.557.206 7.946.206h134.108c4.388 0 7.946 3.523 7.946 7.87v214.771c0 4.347-3.558 7.871-7.946 7.871"/>
        <path fill="#A9DE5D" d="M13.03 27.253l-.088.091a.636.636 0 0 1 .084-.007c.001-.028.006-.054.004-.083zm11.338 2.089c-.006.01-.009.02-.014.029l.02.018c-.002-.016-.003-.032-.006-.047zm-.302-8.458c-.698.64-.735 1.363-.345 2.192.19.407.253.873.374 1.312l-.043.035.014.012.029-.047c.553-.147.895-.614 1.366-.885.404-.135.808-.34 1.21 0l.189.32c.02.022.026.047.021.075.509.668.2 1.387.03 2.037-.255.98-.467 1.968-.68 2.956-.177.29.043.641-.142.93-.14.217-.17.453-.143.7.125.006.23.056.313.152.05.073.075.162.137.23l.17.441.44.48.184.119c.342.095.626.31.39.648-.219.312-.636.233-.9.008-.487-.415-.94-.876-1.076-1.541l.008.006-.297-.475c-.233-.737-.159-1.494-.154-2.248 0-.164.11-.388-.094-.482-.262-.12-.422.076-.557.272l.009 1.993-.126 1.542c-.2.397-.187.873-.464 1.243-.025.305-.194.49-.486.57a2.244 2.244 0 0 0-.016-.148c-.349.427-.686.327-1.146.104-.757-.368-1.56-.642-2.254-1.137l-1.56-1.405c-.128-.177-.234-.369-.392-.523l-.077.08-.313-.064c-.63.083-1.224-.108-1.828-.228-.057.29.072.552.133.824v.001c.147.37.293.74.315 1.145.163.416.37.766.897.804.203.014.38.15.377.403l.294.3.276.365.048.24-.005.025c.204.022.219.15.156.321-.038.704.316 1.501-.493 2.02-.246.221-.335.082-.377-.162l.088-.117a.224.224 0 0 1-.079-.124c.202-.6-.019-1.168-.136-1.742a.28.28 0 0 1 .152-.08c-.121-.173-.128-.402-.268-.565a.71.71 0 0 0-.597-.404c-.458-.03-.653-.305-.808-.662-.66-1.042-1.088-2.181-1.448-3.351-.225-.73-.028-1.093.723-1.29a5.19 5.19 0 0 1 1.223-.148c.548-.011.766-.257.46-.784a31.15 31.15 0 0 1-.037.2c-.192-1.15-.808-2.04-1.709-2.76-.258-.15-.3-.544-.655-.595-.381.952.359 1.981-.246 2.9 0 .001 0 .003-.002.004l-.147.433-.489.768-.342.17-.12.113c-.014.048-.012.11-.041.141-.262.282-.621.524-.947.275-.417-.319.139-.546.211-.83l.17-.126c-.036-.437.322-.604.585-.836l.051.04.01-.009-.062-.03c.204-.403-.033-.816.027-1.222l.28.362h.001c.12-.594-.233-1.153-.132-1.746l-.146-.317c-.002-.77-.153-1.551.173-2.298.44-.586 1.018-.651 1.671-.432l.006-.146.928.603c.357-.624.232-1.21-.108-1.803-.454-.794-1.121-1.44-1.533-2.267-.271-.546-.182-1.18-.512-1.696-.112-.07-.092-.164-.048-.262.007-.276-.249-.511-.126-.805a.551.551 0 0 1 .622-.021c.675.364.629 1.007.64 1.628l-.007.255a.131.131 0 0 1 .023.115.814.814 0 0 1 .12.055c.62.383 1.236.77 1.545 1.382-.048-.193-.006-.403.166-.614a.441.441 0 0 0 .012-.129c.252-.49.483-.992.839-1.423-.008-.277-.308-.38-.377-.622l-1.7-2.176-.175-.421c-.243-.075-.272-.345-.445-.484-.314-.368-.78-.625-.866-1.16.003-.006.009-.01.012-.016l-.215-.085c-.535-.779-1.307-1.298-2.058-1.84a83.306 83.306 0 0 0-.274-.132c-.068-.19-.134-.379.118-.493.218-.169.433-.15.647.008.293.02.558.102.756.334.88.518 1.475 1.306 2.042 2.12v.001c.339.255.547.61.751.968a.63.63 0 0 0 .12.039l.943 1.521c.686-.087.24.399.318.619l-.012.01.323.912.328.491.314-.046c1.125-.463.982-1.563 1.257-2.455a.808.808 0 0 0 .114-.054l.208-.57c.216-.783.401-1.575.755-2.314l.582-2.003a.21.21 0 0 0 .047-.137.482.482 0 0 1 .14-.02c.116-.216.27-.405.537-.274.226.11.312.337.22.58-.121.324-.097.71-.404.957l-.86 2.892c-.27.434-.238.99-.576 1.395l-.274.485-.194.758c-.119.794.688 1.124.897 1.754l.145.557c.3.498.427.103.559-.118.348-.584.22-1.304.538-1.9.058-.11.112-.221.168-.332l.043.047.008-.007-.05-.04c.043-.361.34-.589.48-.9.379-.116.603-.774 1.144-.318.157.44-.306.445-.47.66l-.2.428a1.37 1.37 0 0 1-.138.025.268.268 0 0 1-.078.12l-.298.626-.115.31c-.017.472-.077.959.45 1.235v.92l-.27.327c0 .006-.002.011-.003.017-.002.157-.017.309-.153.413 0 0 0 .002-.002.003-.01.01-.015.02-.024.03.026.248-.173.623.14.699.328.08.35-.419.6-.568h.006c-.094-.22.034-.346.21-.452.703-.54 1.22-.474 1.595.296.396.813.843 1.572 1.52 2.183.273.247.543.516.913.14.24-.126.481-.243.763-.13l.227.278c-.13.729-.838.743-1.314 1.042-1.015.252-1.677-.286-2.26-.995-.156-.19-.237-.454-.526-.508zm55.758 192.58l.027-.007v-.012c-.009.007-.018.012-.027.02zm-16.892 1.004c.101.025.02-.175.008-.073-.003.026-.016.032-.04.031-.166-.007-.429.064-.266-.195h-.03l-.178-.09.32-.07a.207.207 0 0 1-.015-.075c-.24.106-.478.138-.709-.014.002.014.005.029.005.045a.475.475 0 0 1-.051.063c.003.041.005.082.005.123a.167.167 0 0 1 .006.179c.033.03.046.062.034.094-.004.01-.008.016-.012.023l.054-.053c.292-.18.579.038.87.012zm-47.249-74.5l-.022.016.027-.005-.005-.011zm-1.958-5.303zm.052.096zm-.28-.192a.163.163 0 0 1 .135-.007c.027.022.05.047.07.072a.863.863 0 0 0-.124-.132 1.432 1.432 0 0 1-.193-.22c.021.101.054.199.112.287zm-.437-1.203a.629.629 0 0 1 .164.187c.056-.327.246-.651.395-.976.012-.008.025-.012.037-.018l-.006-.277c-.08.033-.152-.01-.223-.08l-.013-.022c-.128.167-.062.527-.316.57.019.206.097.414-.033.613l-.005.003zm1.198-68.295c.015.006.031.01.045.018a.379.379 0 0 1-.003-.017l.015-.014-.057.013zm26.492-36.52a1.063 1.063 0 0 0-.07-.074c.013.03.024.06.034.09.012-.007.024-.011.036-.015zm47.574-13.176c.012.005.025.01.037.013l-.024-.01-.013-.003zm4.092 1.23a.154.154 0 0 1 .009-.039l-.034.03.025.009zm31.723 26.936l-.004-.03-.003.03h.007zM89.058 216.493h-.022l.026.029-.004-.029zm-51.618-28.77l-.03-.005v.006h.03zM13.365 158.65l.015-.03c-.007-.002-.015-.005-.02-.009l.005.039zm-.02-27.01l-.023-.003c.008.005.013.012.023.017v-.015zm.487-.105l.015-.059a.149.149 0 0 0-.046.006c.009.025.019.045.031.053zm.594-6.511a.734.734 0 0 0-.04.03.522.522 0 0 0 .041.017v-.047zm1.887-7.991l.013-.028-.015.006.002.022zM15.679 99.3l-.002.003v.027c.008-.01.014-.02.02-.03h-.018zm14.45-56.567a1.34 1.34 0 0 1-.11.035c.042.004.087-.003.11-.035zM65.246 15.34l-.04-.001c.004.01.006.022.008.033.01-.011.022-.02.032-.032zm70.248 126.953v.025h.001l.01-.028-.01.003zm-91.05 66.344c-.01.084 0 .17.06.259a.16.16 0 0 0 .134-.024.726.726 0 0 1-.194-.235zm-27.34-32.143l-.019-.01c.015.05.028.101.041.153a3.795 3.795 0 0 0-.021-.143zm-2.66-21.57c.01-.007.017-.015.025-.022l-.026-.005v.028zM81.558 15.948l-.012-.009-.009.014.021-.005zm35.903 25.87l-.004.023h.018a1.287 1.287 0 0 1-.014-.023zm16.934 25.547c.01.078.039.141.104.173a3.316 3.316 0 0 1-.104-.173zm-.221 97.469l.022-.012c-.016-.007-.032-.017-.049-.026a.288.288 0 0 0 .027.038zm-28.535-141.13l.045-.036-.03-.007c-.009.01-.013.021-.02.032l.005.01zM134.71 145.67l-.032-.03-.007.034.039-.004v.011c.006-.003.011-.008.018-.01l-.018-.001zM36.88 175.276c.06.03.114.063.163.099a.294.294 0 0 0-.163-.1zM19.763 71.5a.38.38 0 0 0 .122.148 11.466 11.466 0 0 1-.122-.148zm28.618-25.815c.011.015.021.032.034.045-.01-.015-.022-.03-.034-.045zm58.352-6.06a1.338 1.338 0 0 1-.027.055h.027v-.055zm27.872 103.462a.48.48 0 0 0 .098.12v-.028a1.626 1.626 0 0 1-.098-.092zm-.095-.858l.003-.037-.005.029.002.008zM18.243 99.651a.542.542 0 0 1-.017.094c.001.056.035.06.065.052l-.01-.03c-.008-.007-.013-.02-.015-.04v-.005l-.023-.071zm4.053-25.587a.327.327 0 0 0 .09.07l-.09-.07zm98.985-26.941l-.212.187a.795.795 0 0 0 .216-.167l-.004-.02zM50.787 191.53c-.015-.098-.056-.179-.144-.214.042.076.09.148.144.214zm69.177-143.046l-.088.127.061-.078a.15.15 0 0 0 .027-.049zm.383-.468c0-.007.002-.013.003-.02l-.061.067c.032.003.054-.008.058-.047zM21.446 116.03v-.022l-.043.013.043.009zm3.194-30.396l.143.129c-.024-.055-.053-.107-.095-.115l-.048-.014zM86.744 47.49l-.007.054.106-.205a2.551 2.551 0 0 0-.099.151zm28.118 4.78c-.007-.007-.012-.014-.02-.02l-.004.006.024.014zm4.456-.69c-.041.01-.068.055-.086.118a.501.501 0 0 1 .086-.119zM66.9 180.22l.01.012.025-.028-.005-.005-.03.022zM44.58 69.222l-.045.042c.015 0 .028-.004.044-.004v-.038zm43.29-12.464h-.009l.009.06v-.06zm22.345.163c.004-.015.01-.03.013-.045l-.048.019a.212.212 0 0 1 .035.026zM43.319 165.868l.015.034c0-.016.002-.032.001-.048l-.016.014zm-.605-95.993l-.001-.037a1.598 1.598 0 0 0-.025.04c.008-.001.018-.001.026-.003zm-1.81 75.74a.616.616 0 0 1-.05.061l.021.015.074-.048a.197.197 0 0 1-.044-.028zm2.407-65.878l.001.013c.008-.005.016-.008.023-.014l-.024.001zm16.474-5.868l.037.006a.54.54 0 0 1 .007-.044c-.015.012-.03.024-.044.038zm61.238 55.805l.011-.024h-.005l-.006.024zm-52.75 49.073c.003-.009.008-.017.013-.026l-.024.008.01.018zm-39.855-66.66c.017-.003.032-.009.048-.014a.509.509 0 0 1-.045-.028l-.003.042zm82.044-12.017c.013.003.024.003.037.005l-.034-.037-.003.032zm.752 53.73a.548.548 0 0 1-.003.034h.03c-.008-.013-.018-.024-.027-.035zm-5.785-3.038a.434.434 0 0 1-.013.123c.079-.004.156-.005.238-.01a1.325 1.325 0 0 1-.225-.113zm-61.287 27.09c-.037.04-.086.081-.148.13.028 0 .056 0 .088.002a.395.395 0 0 0 .06-.132zm-2.212-39.575l-.023.03c.008.003.017.009.025.013l-.002-.043zm-14.673-24.243v-.01l-.016.036.016-.026zm15.137-23.7a.315.315 0 0 1 .041-.085c-.062-.02-.13-.034-.191-.055l.003.017-.005.011a.254.254 0 0 1 .152.113zM71.14 68.523c.006-.02-.004-.04-.038-.063.017.014.03.035.038.063zm.21-.143c-.015-.014-.029-.028-.042-.043.008.02.023.033.041.043zm11.925-18.805l.015-.004-.018-.03-.002-.002.002.002c.001.012.001.023.003.034zm20.662 18.76l-.003-.031a.215.215 0 0 0-.035.036l.038-.005zm17.62 59.633c-.003.031-.005.062-.01.094.006-.026.01-.052.014-.079l-.004-.015zM60.75 75.6h-.002a.253.253 0 0 1 .023.12c-.01.009-.022.015-.032.022l.04-.006a7.2 7.2 0 0 0-.01-.133h-.002l-.018-.003zm12.079-7.19c.014-.015.015-.03.007-.048l-.007.048zm2.34 4.517l-.041-.001.023.077a.842.842 0 0 1 .017-.076zm9.212-21.69l.012-.007-.01-.039-.002.046zm1.244 18.271c.088 0 .17-.004.242-.023a1.795 1.795 0 0 1-.191-.068.26.26 0 0 1-.05.091zm.348-2.212l-.004-.024-.037-.046a.161.161 0 0 1-.033.032c.024.012.049.024.074.038zM28.614 117.81a1.779 1.779 0 0 1-.125-.098l-.04.119a.946.946 0 0 0 .165-.021zm28.234-40.68l-.12.033a.39.39 0 0 1 .043.092.467.467 0 0 0 .077-.125zm6.49-3.75c-.029-.023-.074-.028-.126-.028.034.02.066.04.093.061.017 0 .04.003.052.01a.04.04 0 0 1 .01.01.559.559 0 0 1-.028-.053zm11.686 2.247h.025c-.004-.006-.01-.012-.013-.018l-.012.018zm7.635-6.286v.017l.036-.006-.036-.01zm25.064 62.187c.077.04.14.073.193.104a.932.932 0 0 0-.085-.177.295.295 0 0 0-.108.073zm-17.15 15.684h-.049l.03.029.018-.03zm-48.5-23.762l-.006.035.006.006v-.041zm-6.929-7.532a.214.214 0 0 1 .036-.03c-.029-.012-.055-.02-.084-.031.019.022.031.04.048.06zm-4.323.442a.442.442 0 0 0 .068-.05 5.366 5.366 0 0 1-.22.072.666.666 0 0 0-.332.25c.114-.072.268-.154.484-.272zm1.657-3.015a.6.6 0 0 0 .088-.057c-.042-.003-.077.013-.088.057zm8.371-14.507h.023l-.022-.007v.007zm2.517-2.442c.01-.005.017-.013.026-.02l-.027-.01.001.03zm2.435-8.666l-.033.026.033.009v-.035zm64.823 59.954l.014-.019-.01-.002-.004.021zm-16.013-7.012l.002.07h.047a1.348 1.348 0 0 1-.05-.07zM60.323 155.15a1.942 1.942 0 0 1-.16-.046c.018.04.047.065.086.058.027-.006.049-.008.074-.012zm32.443-85.65c-.03-.03-.053-.057-.076-.082 0 .051.01.094.076.081zm12.568 29.333l.008-.04-.025.022.017.018zM43.136 116.11c.016-.03.03-.06.044-.09a1.308 1.308 0 0 1-.07-.048c.01.046.02.092.026.138zm-6.332-9.894c-.01.004-.018.011-.028.016.009 0 .02.003.03.005-.001-.007 0-.014-.002-.02zm1.052.018a.994.994 0 0 1-.017.12 5.56 5.56 0 0 1 .118-.054c.082.038.017-.148.017-.045a.977.977 0 0 1-.118-.02zm66.857-8.933l.005.026a.545.545 0 0 0 .044-.01c-.016-.012-.032-.019-.049-.016zm10.962 16.074l.038.015c-.012-.007-.025-.01-.038-.015zm-7.219 16.11v-.017c-.006.007-.014.011-.021.018l.021-.002-.005.002.004.009a.19.19 0 0 0 .001-.01zm-37.132 16.548c0 .012-.003.024-.005.036.022-.004.043-.009.065-.012-.02-.01-.04-.016-.06-.024zm-6.956 5.757c.016.022.054.034.036.003l-.036-.003zm-7.514-3.653c.008-.02.018-.038.028-.057h-.03c.001.02 0 .038.002.057zm-14.298-35.37l.038.01-.035-.073-.003.063zm.404 2.731l.011.023v-.11c-.007.03-.007.058-.01.087zm.001 2.711c-.003-.024-.002-.048-.005-.073l-.002.02c.002.018.003.036.007.053zm-.288-2.961l.03-.063c.009-.027-.008-.04-.03-.046v.109zm42.17-38.914c-.007.003-.013.008-.02.012h.039a1.014 1.014 0 0 1-.02-.012zm13.884-1.01c-.006.007.02.019.06.032a.753.753 0 0 1-.058-.035s0 .002-.002.003zM54.522 144.44h-.03c.017.039.037.062.06.072a.65.65 0 0 1-.03-.072zM66.56 81.485c.046.07.118.081.197.057a1.89 1.89 0 0 1-.197-.057zm37.026 13.222c.006.007.01.015.015.023l.005-.025c-.007 0-.013 0-.02.002zm-57.615 7.135a.337.337 0 0 0-.097.055l.097-.055zm10.388-17.02l-.006.012.021.005.007-.001-.01-.005.003.006-.015-.017zm34.519-12.791c.006-.01.01-.018.017-.027-.007 0-.014-.002-.02-.003l.003.03zM70.46 87.122c.023.002.045 0 .07.004-.015-.01-.03-.018-.046-.027l-.024.023zm32.855 6.338c.05.002.099.001.144-.002a.168.168 0 0 0-.143-.012l-.001.014zm-21.647 39.242c.03-.024.06-.046.091-.067-.075-.047-.091-.005-.09.067zm.838-38.802a.677.677 0 0 0-.007-.019c-.002.01-.003.02-.006.029l.013-.01zM68.817 83.77v-.03c-.009.006-.018.008-.027.013.01.006.018.01.027.017zm8.737 4.754l-.035.001c.008.021.02.04.036.056a.91.91 0 0 0-.001-.057zm25.258 1.63c.03.018.072.033.126.044l.002-.006a1.846 1.846 0 0 1-.128-.038zm.172 2.848l.005-.023c-.003 0-.008.004-.01.005l.005.018zm.816 19.393l.012-.003-.022-.024.01.027zM60.27 145.67l.008.01v-.002l-.007-.008-.001-.011-.007.002.007.01zm17.103-56.677l.022-.015c-.01 0-.021 0-.031.003l.01.012zm25.462 9.391l.008-.006.005-.019-.032.001c.006.008.012.017.019.024zm-38.438 46.062c.012.015.02.032.03.049.026-.015.05-.03.081-.046a3.326 3.326 0 0 0-.111-.003zM52.892 127.86c.025-.196.053-.393.084-.594-.073.214-.08.408-.084.594zm-.09-19.906l.036.003c-.01-.008-.02-.014-.031-.021l-.006.018zm-2.32-1.875h-.095a.42.42 0 0 0-.02.103c.057-.03.106-.062.115-.103zm.629-17.56l-.041-.004-.005.038c.015-.011.03-.025.046-.035zm28.186 7.732v-.05c-.028.035-.058.07-.088.105.052-.02.089-.042.088-.055zm22.448 19.528c.006.002.01.005.016.006v-.022l-.016.016zm-27.144 16.01a5.557 5.557 0 0 1-.132-.046l.007.006c.033.03.077.04.125.04zm-13.395 12.627v.027l.012-.023a.136.136 0 0 1-.012-.004zm7.008-46.6l.007-.047-.024-.008.017.056zm9.904-6.528a2.85 2.85 0 0 1 .024-.285.476.476 0 0 0-.024.285zm27.647 16.062a.935.935 0 0 0 .035.017v-.055c-.014.012-.023.025-.035.038zm-41.297 32.777c-.022.001-.042.004-.062.006l.062.021v-.027zM51.57 92.522l.015.013c.02-.031.04-.062.057-.093a.343.343 0 0 0-.072.08zm6.37.154c-.006-.007-.012-.011-.017-.018a.259.259 0 0 0-.045.024.263.263 0 0 0 .062-.006zm10.21 17.345a.403.403 0 0 1-.11-.09c.032.069.059.188.11.09zm1.405 11.242a.314.314 0 0 0 .07-.066.552.552 0 0 0-.071.035c0 .009.002.016.003.025l-.002.006zm-1.355-10.119l-.013.014.01.005v.002l.003-.002h-.004l.004-.019zm1.52 17.735l.033-.001c-.011-.01-.024-.016-.035-.024l.001.025zm31.452-37.098a1.782 1.782 0 0 0-.007-.1c-.016.005-.033.008-.05.011.02.027.04.055.057.089zm1.198 16.925c-.058.01-.107.023-.081.071a.65.65 0 0 1 .081-.07zm-1.853-9.405h.023l-.01-.02c-.004.007-.01.013-.013.02zm-46.322-9.017zm12.796-1.305h-.083l.007.011.003.02.073-.031zm25.912 3.688v.01l.023-.007a.788.788 0 0 1-.023-.003zm-34.97 39.941l-.003-.066-.024.008.026.058zm51.573-9.81a.31.31 0 0 1-.083-.037l.11.151a.21.21 0 0 0-.027-.115zm-66.635 5.64l-.003-.02h.004a1.075 1.075 0 0 1-.087-.156l.003.022c.023.052.05.103.083.154zm11.792 16.919c-.011-.025-.017-.048-.025-.071a.572.572 0 0 0-.004.087c0 .008.003.014.003.023.035.075.1-.11.026-.04zm21.795-3.285c-.072.042.015.18-.003.084-.007-.04.004-.06.032-.065a.19.19 0 0 1-.029-.019zm-38.315-38.171l.023.002c0-.026.005-.05.006-.075l-.029.073zm55.734-34.816l-.015-.016-.006.016h.021zM69.014 71.78l.009.022.008-.01-.017-.012zm-35.881 42.68c-.05-.05-.078-.13-.091-.243-.02.126.023.266.09.244zm75.26-49.196l-.032.03a.239.239 0 0 0 .037.002l-.005-.032zm-23.736-5.23l.008.053a.353.353 0 0 1 .029-.01c-.013-.014-.023-.029-.037-.044zM71.02 68.42c-.097-.001-.193-.025-.286-.043.074.065.215.028.312.053l-.026-.01zm-30.247 63.184c.012-.075.015-.151.014-.227l-.02-.11c.009.112.014.225.006.337zm-7.716-26.009l.011.01.018.006.002-.001-.031-.015zm13.676 80.126l.002-.001-.014-.087.004-.023-.028-.018.024.041a.087.087 0 0 0 .012.088zM84.275 39.41c.014 0 .01-.04 0-.08a.632.632 0 0 1-.2.08c-.007 0-.014.006-.021.014.061-.01.133-.016.221-.014zm-66.584 87.839c.201.012.386.014.564.01.049-.012.096-.024.143-.039a5.456 5.456 0 0 1-.707.029zm.79-28.414a.048.048 0 0 0 .005-.002l-.012-.024v.022l.007.004zm111.72 6.221l-.004-.055.005-.008-.022-.003c-.022-.023-.036-.048-.053-.073v.099a.391.391 0 0 1 .074.04zM117.123 42.73l-.043-.06a.615.615 0 0 1-.089.054c.045 0 .088 0 .132.006l.005.012.008-.009c-.005-.001-.009-.001-.013-.003zm15.398 5.743v.019l.005.007a.722.722 0 0 1-.005-.026zM44.133 202.364l.025.001a1.478 1.478 0 0 1-.009-.036l-.016.035zm63.081-168.883c-.009.007-.016.016-.026.022l.01.013a.104.104 0 0 0 .016-.035zm-79.52 10.96l-.02-.01-.002.023.023-.013zm-11.291 55.737c-.005-.012-.008-.024-.011-.035h-.001l.012.035zm122.027 81.236h-.305c-.268-.213-.118-.513-.163-.772-.09-.154-.182-.308-.273-.461l-.049.919a.197.197 0 0 1-.121.017v.02c.04-.014.08-.027.122-.037.007.535.23 1.112-.308 1.54.04.388-.141.687-.399.951-.165.17-.171.32.062.406.202.074.218-.036.243-.23.044-.343.195-.406.349-.03.092.224.201.053.287-.002.135-.087.278-.197.369.015.072.17.017.474-.124.465-.651-.043-.81.632-1.296.807-.114.042-.19.03-.258-.066-.264.011-.57-.013-.673-.256-.105-.249.33-.272.364-.512-.233.092-.546.118-.684.286-.483.587-.901.012-1.342-.025-.093-.008-.152-.139-.11-.245.105-.268.428-.098.583-.273a3.504 3.504 0 0 0-1.87-.38c-.858.413-1.517 1.297-2.636 1.091-.5.22-1.086.167-1.557.479-.046.847-.648.458-1.069.471l-.018-.02h-.001l.02.02c.133.203-.02.398-.017.597.288-.184.612-.156.931-.153-.259.2.275.404.017.56-.279.17-.367-.306-.64-.25-.208.281-.414.072-.62-.001-.164.225-.408.13-.622.154.098.237.454.047.564.38-.387.1-.786.357-.72-.381-.21.11-.458.264-.435.492.101.977-.773.683-.974.538-.827-.6-1.451.076-2.144.217-.19.039-.326.049-.488-.015l-.153.154v.304c.21.047.494-.102.587.217.029.099-.04.208-.162.216-.302.022-.396-.172-.427-.429-.529-.133-.791.286-1.1.58-.234-.24-.043-.403.014-.579h-.466l-.002.156c-.002.174.01.355-.166.466-.134.085-.197.336-.421.213-.151-.082-.357-.18-.402-.315-.093-.277.316-.166.37-.366-.128-.003-.244-.03-.314-.151l-.143-.119-.32.096-.156.482c-.542-.159-1.096-.118-1.65-.103-.182.005-.19.133-.216.256h.543c-.418.305-.872-.024-1.168.303l.904.053-1.21.569-.93.307-.153.153c-.04.239.107.572-.316.62.033.17.063.341.1.51.04.18-.03.335-.2.343-.286.014-.178-.239-.21-.392a.412.412 0 0 0-.318.173c-.058.081-.111.277-.264.12-.054-.055-.026-.19-.035-.288-.303.318-.376.954-1.106.685-.128-.047-.513.298-.63.599-.151.39-.442.455-.808.377l-.559.343-.843.583c.097.05.204.185.133.225-.647.368-.53 1.129-.864 1.61-.355.51-.236.92-.144 1.394.057.296-.139.466-.303.656.168.013.282.083.292.269.012.213-.088.324-.3.34h-.001c.127.56.072 1.082-.312 1.539l.313.002.214-.299c-.167.803.26 1.656-.206 2.445-.078.132-.096.287-.287.3-.227.015-.305-.113-.349-.313-.068-.312-.718-.428-.31-.904-.534.27-.66.813-.876 1.295-.126.283-.088.7-.572.693-.223.128.088.362-.099.498.046.134.211.307.025.402-.912.463-.808 1.3-.825 2.099l.156.68c.031.175-.011.376.17.502.17-.175.383-.329.315-.622-.564-.637-.629-1.417-.153-1.846.22.02.372.15.264.349-.175.322.011.592.046.883.079-.056.2-.177.228-.159.177.117.042.31.083.467.019.754-.016 1.462-.624 2.066-.434.432.163.699.342 1.03.277-.057-.058-.327.277-.45-.126.589.098 1.132-.152 1.67.052.349.117.697.153 1.047.028.281-.025.525-.488.46.122-.395.387-.877-.278-1.05-.004.302-.031.57-.439.312l-.191.307c.211.412.229.837.054 1.26-.072.175-.142.453-.41.344-.22-.09-.188-.31-.114-.532.082-.243.417-.432.195-.752l-1.096 1.235-.475.761c-.109.556.095.963.543 1.31.127.099.416.44-.094.533.07.238.474.4.2.71-.129.148-.333.254-.546.17-.337-.134-.266-.443-.274-.71-.007-.175.014-.356-.157-.475.15.798-.479.752-.954.85-.434.089-.646-.093-.61-.551.02-.243-.182-.128-.245-.089-.292.182-.587.022-.888-.003.058.299.464.417.269.847-.247-.375-.537-.383-.916-.257-.577.192-1.186.294-1.78.434h-.001c-.833.15-1.665.52-2.503.017l.03-.04-.023-.004-.007.044a6.635 6.635 0 0 0-1.698.136 27.394 27.394 0 0 1-3.777.152c-.248-.008-.524.085-.726-.153 0-.046.002-.093.005-.14l-.007-.001c-.376.376-.833.057-1.244.138-.335-.004-.691.063-.999-.03-.342-.102-.141-.224.07-.275l-.15-.301a41.16 41.16 0 0 1-.16-.007c-.333-.06-.413-.205-.155-.462l-.156-.155c-.202.091-.397.222-.637.116.09-.373.361-.323.633-.268-.108-.392-.665-.227-.775-.616-.118.13-.22.28-.36.382-.149.11-.334.013-.404-.102-.35-.578-.34-.584-1.288-.599l.347-.449-.314-.172c-.26.252-.59.311-.934.326-.14-.283.452-.235.249-.47-.152-.178-.425-.185-.699-.216-.681-.08-1.357-.05-2.034-.086.358.421.85.281 1.303.308.238.014.533.03.491.34-.042.313-.324.148-.508.124-.6-.076-1.329.253-1.713-.535-.028-.057-.288-.085-.347-.03-.419.396-.93.209-1.402.254-.026-.24.217-.302.311-.462-1.223-.366-2.506-.566-3.686-.099-.49.194-.982-.012-1.346.24-.469.324-.978.38-1.495.475-.21.605-.706.168-1.055.284.141-.217.467-.037.592-.278-.261-.046-.562.102-.779-.159-.027-.23.188-.27.333-.398-.557-.236-1.036.539-1.577.09-.298-.002-.615.048-.777-.3l-1.58.328c.311.366.807.147 1.112.431-.052.427-.388.292-.637.305-.262.013-.177-.16-.137-.3l-.466-.004c.041.148.112.302-.153.31-1.495.048-2.99.104-4.485.145-.11.003-.224-.094-.335-.145-.26-.038-.555.103-.771-.152h-.166c-.822.12-1.59.65-2.471.327l-.322.141c.366.15.33.3.003.455.31 0 .62.001.93-.001.266-.002.205.151.15.304h-.001l.161.16c0 1.153-.066 1.25-.935 1.336-.096-.2.16-.296.146-.47-.025-.34.182-.879-.545-.605-.109.04-.303.066-.283-.117.02-.2.236-.124.375-.147.096-.103-.528-.204 0-.308v-.15c-.33-.033-.746-.392-.873.279-.055.29-.253.193-.338 0-.077-.176-.032-.422-.33-.42l-.034-.045-.006.001.04.043c-.115.404-.264.61-.8.504-.379-.074-.814-.442-1.234-.057l.697.378c-.689.209-1.36.382-1.942.443-.522.055-1.334-.136-1.837-.633-.247-.243-.467-.395-.8-.19-.236.175-.445.482-.78.153-.2-.007-.483.07-.311-.307-.311-.1-.773.25-.931-.307l-.933.002c.165.491-.255.42-.486.447-.266.03-.593.114-.791-.155-.136-.183.02-.279.196-.284.36-.013.72-.007 1.08-.008-.797-.053-1.615-.353-2.083-.867-.468-.514-1.336-1.09-.862-2.077-.128-1.198-.693-2.273-.987-3.424-.1-.39-.178-.788-.266-1.182-.192.34-.327.715-.09 1.056.287.411-.203.392-.299.492-.22.232-.359-.057-.363-.246-.006-.306-.476-.771.256-.88.069-.01.186-.18.166-.216-.332-.634.302-1.16.189-1.763.035.081.059.164.079.246a.633.633 0 0 0-.08-.246l-.013-.288c-.211-.251-.27-.61-.578-.793l-.688-.404c.323.64.95 1.235-.122 1.694.65-.643-.347-1.363.193-2.01-.677-.955-.1-2.113-.51-3.112v2.5c-.451-.805-.396-2.127-.002-2.5l-.001-.31c-.453-.129-.419-.533-.452-.861-.043-.428-.012-.863-.013-1.296-.317.306-.042.733-.26 1.077.152-.723-.448-1.294-.361-2v-.001c.097.001.248.182.267-.059.011-.13-.025-.26.17-.225.15.027.173.16.188.286.172-.17.328-.372.619-.309.944.189 1.274-.666 1.864-1.078.287-.435 1.133-.316 1.087-1.08l-.68-.238c.397-.107.39-.417.443-.778-.022.765.452.573.83.547l.075-.136c.154-.416.488-.812.135-1.28-.373.058-.052-.412-.33-.427l-.007.148c-.015.211-.073.412-.322.421-.108.004-.29-.074-.316-.154-.087-.264.276-.224.332-.411-.42-.087-.167-.303-.05-.413.275-.26.121-.386-.113-.513-.21.324-.386.104-.516-.058-.193-.244-.047-.366.21-.41l-.006-.297.053-.053-.005-.007-.048.06c-1.109-.812-2.41-1.289-3.57-2.01-.887-.3-1.016-.21-1.065.678-.008.135-.211.08-.33.092.01.347-.09.611-.501.614-.54.005-1.078.002-1.617-.001-.204-.001-.349-.077-.351-.308-.002-.188.113-.253.28-.3.318-.092.63-.206.944-.311a.878.878 0 0 0 .247.183 1.05 1.05 0 0 1-.247-.184v-.308c.056-.315-.603-.375-.281-.818.072-.1-.203-.223-.333-.199-1.054.192-2.275-.186-3.116-.987-.319.166-.441.02-.462-.286l-.154-.029c-.412.324-.755.838-1.343.14-.17-.2-.71-.094-1.079-.132-.197-.02-.413.06-.626-.134.266-.366.766.005 1.02-.313-.128-.124-.268-.216-.46-.162-.32.214-.633.246-.937-.028l-1.086.037c-.323.271-.717.075-1.068.161l-.024-.029h-.002c.009.011.02.018.026.03a1.315 1.315 0 0 0-.02.13c.676-.107 1.26.27 1.908.358-.678.139-1.393-.303-2 .217-.234-.292.187-.369.091-.573-.644.391-1.308.55-2.017.167-.34.46-.869.5-1.37.605-.448.093-.912.132-1.19.592-.124.207-.323.368-.473-.03-.025-.066-.294-.134-.337-.09-.51.51-1.09-.037-1.637.12-.447.129-.906-.06-1.321-.306-.501-.296-.986-.57-1.633-.57-.77 0-1.156-.79-1.038-1.883-.008-.515-.59-.985-.125-1.538a.506.506 0 0 1 .106-.5l-.168-2.238a.177.177 0 0 0-.113-.048l-.18.019v1.415c-.565-.734-.616-1.637-.158-2.188v-.153c-.174-.011-.385.031-.444-.2-.052-.203-.287-.453-.003-.613.357-.2.234.305.443.354.044-.252-.088-.532.127-.755l.05-.631h.001c-.2-.034.316-.643-.304-.362-.24.108-.3-.04-.257-.284.067-.389-.5-.415-.494-.81-.208.547-.528 1.06-.1 1.624.084.112.254.255.065.38-.175.118-.517.125-.546-.053-.091-.546-.78-.88-.522-1.53.228.017.103.536.438.355.262-.142.187-.437.01-.59-.502-.433-.025-.859.006-1.266.058-.762.152-1.525.263-2.3.115.577.453 1.143.183 1.727-.218.469.19.75.247 1.131.021.144.414.388.698.094-.01-.35-.022-.7-.033-1.049-.417-.055-.417-.055-.546-.786.268-.054.23.314.446.319-.168-1.228-1.06-2.184-1.296-3.386-.255-.282-.116-.616-.129-.93l.005.005c-.285-.222-.144-.524-.15-.797l-.05-.574a1.35 1.35 0 0 1-.123-.025c-.001.126.002.252-.006.378-.01.173.003.393-.259.364-.252-.028-.183-.257-.206-.42-.78-.177-.353-.804-.466-1.23l-.155-.002c-.495-.356-.75-.741-.155-1.233l.152-.465c-.057-.049-.112-.137-.172-.14-.273-.019-.674.435-.757-.234-.062-.507.017-.897.635-.948.048-.004.093-.04.14-.06l.005-.155c-.437-.56-.298-1.218-.315-1.85-.223.001-.252.206-.37.324-.231.23-.633.116-.519-.136.383-.843-.322-1.693.113-2.498v-.46c.18-.226-.39-.745.307-.768v-1.508l.137-.01v1.183c.06 0 .119-.002.178-.004v-1.977c-.313-.052-.534-.313-.363-.528.677-.85.118-1.718.119-2.574 0-.28-.048-.559-.06-.839-.007-.16.034-.334.234-.328.198.006.221.184.222.343.003.693.003 1.386.004 2.079.247-.496.406-.965.18-1.554-.242-.632.305-1.21.32-1.908l.368.42c.191-.492-.123-1.007.215-1.428l.004-.307c.003-.571-.021-1.14.143-1.705.091-.312.192-.448.51-.282.207-.004.257-.165.32-.314l-.012-.275c.006-.324-.157-.671.13-.959l.155-.626c-.184-.6-.113-1.261.058-1.781.342-1.043.01-2.057.12-3.077.063-.577-.023-1.169-.041-1.753-.143-.241-.294-.218-.45-.014-.018.236-.11.427-.393.652-.007-.501.042-.855.391-1.113-.475-.58-.44-1.204-.155-1.848.08-.493-.295-.692-.613-.927-.092.282.196.8-.216.82-.376.018-.528-.475-.562-.867-.027-.301-.022-.603.15-.874-.212-.215-.245-.502-.314-.774-.528-.442-.673-1.056-.773-1.69l-.158-.001-.278.491c-.014-.54-.154-.91.123-1.261.335-1.182-.352-2.319-.156-3.495.042-.253-.118-.594.312-.664.132-.404-.312-.95.31-1.233-.008-.358.047-.732-.039-1.071-.099-.39-.037-.646.315-.833.408-.216.435.242.654.362-.015-.411-.4-.823.002-1.234-.2-.145-.15-.358-.147-.555.001-.118-.008-.304.16-.278.194.03.124.236.146.374l.307-.463.158-.004c-.013-.788.032-1.582-.059-2.36-.057-.487.319-.507.527-.718.26-.526-.207-.988-.165-1.548.269.119.107.645.459.496.338-.142.232-.506.164-.802-.307-.264-.373-.568-.15-.918-.227-.446-.302-.873.153-1.236-.244.031-.305-.21-.463-.306-.004.025-.001.057-.015.073-.026.029-.063.048-.095.071-.009-.395-.097-.81-.006-1.18.117-.48.099-.95.116-1.427-.044-.06-.125-.12-.127-.182-.011-.431-.006-.863-.006-1.335.19-.013.34.565.573.085.066-.136-.01-.428.285-.322.252.091.21.387.303.589.09.198.018.364-.216.383-.52.045-.511.408-.504.778.62.778.107 1.385-.308 2.007.376-.224.484-.05.47.31.23-.35.25-.762.349-1.15.107-.42.29-.765.775-.836.245-.376.55-.734.359-1.234-.409.259-.38-.121-.471-.32-.074-.16-.05-.321.117-.382.342-.125.2.278.366.356l.541-1.168c-.412-1.424.274-2.774.276-4.168 0-.335.278-.858-.392-.957-.024-.004-.054-.09-.05-.135.065-.753.1-1.5-.322-2.18h-.62c-.13-.022-.25-.051-.198-.229.14-.483.004-.911-.27-1.311-.16.094-.223.334-.465.308-.001-.3 0-.599-.005-.898-.003-.162-.055-.28-.249-.31-.37-.056-.37-.064-.213-.487a4.222 4.222 0 0 1-.31-1.231l-.157-.773c-.959-.186-.747.538-.806 1.251-.206-.614.032-1.195-.663-1.419-.187-.06.102-.815.354-.958.48-.272.197.448.565.536.175-.334.072-.808.395-1.102v-2.158c-.223-.174-.134-.422-.155-.644-.017-.173.017-.413-.246-.388-.274.026-.218.25-.139.412.242.501-.047.932-.372 1.131-.352.216-.884.303-1.196-.25-.094-.168-.334-.117-.508-.103-.441.036-.658-.088-.661-.59-.003-.509.173-.706.676-.65.358.042.603-.053.587-.49-.013-.341-.108-.722.485-.753.532-.028.824.115.795.646.482.026.317-.75.727-.557.39.183-.133.592.017.9.043.088.097.172.146.258.009-.348-.06-.743.48-.76l-.003-.002c.025-.263-.135-.567.174-.766-.18-.245-.1-.446.11-.624.2-.224.205-.504.23-.777.243-1.172.748-2.304.557-3.543-.27-.29-.123-.631-.123-.954l-.005-.41v-.001.002c-.005-.32-.137-.657.12-.945.074-.382.064-.789.323-1.118.037-.246-.098-.529.156-.73.096-1.132.022-2.264-.004-3.396a7.688 7.688 0 0 1-.298-2.465l-.014-.764c-.05 0-.1-.001-.149-.003-.312.427-.086.915-.156 1.37-.027.178-.047.363-.256.408-.177.037-.182-.12-.21-.237-.554.06-.476-.453-.438-.65.219-1.162-.128-2.385.39-3.51.04-.085.064-.251.017-.292-.796-.69-.02-1.404-.006-2.096.007-.351.212.102.35.073l.779-1.693c.123-.36.142-.764.455-1.042l-.034-.322c-.687-.125-1.025.448-1.505.738-.146.21-.295.338-.456.012-.271-.354-.072-.64.138-.923.127-.295-.267-.676.154-.923.004-.125.029-.24.15-.31a.163.163 0 0 0-.016-.147l-.292-.01c-.415.133-.68.039-.777-.43-.106-.52-.576-.998-.151-1.567-.628-.278-.367-.947-.622-1.39-.254-.13-.058-.482-.31-.615-.105.152.271.626-.31.46-.364.503-.403.107-.464-.171-.096-.444.346-.896-.055-1.367-.097-.113.239-.166.318-.073.4.47.493.232.527-.2.001-.018.024-.034.037-.05l.104.167c.04 0 .081.002.122.007l.012-.779c-.59-.361-.522-.963-.408-1.465.18-.792.315-1.574.271-2.384-.3.21-.024.602-.293.86-.297-.23-.026-.653-.194-.807-.618-.57-.402-.81.219-1.204.275-.174-.098-.79-.089-1.215.003-.137-.141-.313.095-.362.208-.044.297.146.248.284-.134.373.284.478.33.753.293-.012.387-.251.452-.456.348-1.106 1.42-2.044.801-3.382a.388.388 0 0 1 .14-.48c-.029-.132-.207-.273-.034-.396.16-.115.259 0 .345.15.083.147.208.27.315.404l.306-.158c.112-.265.332-.485.085-.828-.178-.246-.188-.643.147-.796.53-.243.087.475.422.48.044.001.088.049.131.075v-.001c.117-1.117.32-1.236 1.388-.938.411.115.21.302.143.5.006.04.016.078.03.117.399-.13.766-.302.93-.728-.03-.288.025-.49.39-.505.302-.012.6-.089.84-.3-.65.013-.722-.432-.777-.92.326-.106.28.265.47.303.052-.117.121-.25.265-.214.173.044.188.217.206.37.647-.317.981-.975 1.54-1.388-.011-.56.822-.745.629-1.387.252.131.06.484.312.614l.289-.312c.306-1.631 1.473-1.891 2.798-2.015l.028.05a.677.677 0 0 1 .013-.011l-.041-.039c.273-.507.866-.365 1.267-.614l.002.07.05-.014-.052-.056-.23-.636c.653.276 1.213.217 1.738-.145.282-.195.477-.012.659.184l.163-.036c-.123-.41-.12-.408.253-.872.038-.046.051-.169.018-.206-.42-.482-.234-1.043-.288-1.588-.057-.577.269-.325.475-.381-.1-.224-.093-.554.145-.52.29.043.285.39.172.662l.192.022c.642-.255 1.304-.474 1.82-.963.007-.163-.012-.337.165-.437-.052-.426.088-.715.567-.782-.037.322-.445.435-.423.774l.18.01c.223-.302.611-.492.636-.927-.044-.4.115-.706.442-.933-.006-.172-.029-.35.154-.459l-.301-.64c.43.064.713.198.441.637l.238.035.11-.12c.043-.349.037-.714.145-1.042.097-.296.178.085.29.061.009-.198.107-.307.313-.31-.703-.91.273-.447.498-.598l.434-.03.367-.415-.728-.327.024-.117.963.098-.002-.316c.976-.294 1.95-.148 2.925.006.241.036.415-.235.668-.143.103-.043.245-.019.284-.167-.162-.042-.435.024-.305-.305.099-.679-.224-1.325-.156-2.001-.592-.104 0-.563-.273-.852-.47-.495.505-.31.43-.688-.27-.51-.14-.778.465-.76l.031-.32c-.2.06-.45.276-.498-.154-.159.096-.22.335-.46.31-.271-.009-.35-.181-.303-.404.04-.193.188-.08.297-.057.063-.386-.474-.417-.465-.77v-.001c.594-.077.827-.498.921-1.007.04-.216.054-.348.307-.225l.028-.783-.008-.452c-.322-.358-.084-.795-.17-1.187-.23-.101-.021-.425-.268-.519-.446-.432-.39-1.39.164-1.554.376-.11.652-.407 1.045-.434.841-.378 1.79-.226 2.67-.507-.22-.395-.592.05-.856-.218.284-.386.936-.005 1.141-.511-.11-.19-.181-.39-.157-.614.253-.407.503-.82 1.087-.464h.158c.162-.226.407-.13.62-.154l.004-.845c.001-.198.138-.457.28-.348.406.31.803-.098 1.353.09-1.021.315-.662 1.123-.862 1.712l.153.14c.182.003.241-.151.337-.259.164-.29.454-.326.744-.363l.293-.274c.06-.055.122-.11.183-.163.216-.346.634-.331.946-.431.44-.141.094.21.117.34l.462.268c.312.011.586.08.658.442l.572.027h.001c.561-.32 1.058.134 1.6.138.833.006 1.665.113 2.497.177.324-.286.722-.315 1.126-.32.226.037.398-.074.567-.196 0-.05.004-.1.01-.15l.256-1.218c.34.303.446.741.828.915h-.001l.162.014c1.912-.73 3.88-1.288 5.84-1.869h.002l.835-.31c.76-.397 1.5-.735 2.429-.677.509.032 1.068-.322 1.562-.581.462-.242.583-.033.664.346.538-.492 1.202-.484 1.869-.46v-.001c.022-.07.037-.141.067-.207.077-.17.41.02.378-.206-.02-.147-.268-.186-.445-.2-.34.292-.725.11-1.095.11.346-.161.698-.288 1.087-.26.442-.156.777.54 1.247.154.288-.57.75-.306 1.135-.184.109.034-.103.148-.207.187.061.043.137.136.181.123.965-.282 1.658.425 2.478.659.118.033.331.079.356.036.34-.583.502-.067.718.103.59-.485.957.26 1.585.23-.76.42-.162.689-.031 1.003.113.18.297.146.467.152.227-.335.55-.084.762-.045.83.156 1.71-.345 2.497.2.457-.34.74-.15.934.304.728.326 1.375-.112 2.054-.174.037-.315-.32-.321-.373-.66.546.446 1.048.188 1.58.12.585-.075 1.199.061 1.8.107.024.001.065.01.066.02.007.043.002.087.002.13l.002.304.156.004c.051-.001.102-.002.153-.005.496-.571 1.496-.767 2.328-.456l.001.001c.486.102 1.278.004.487.858-.231.25.182.25.292.372.31.174.619.137.966.078 1.279-.218 2.561-.408 3.785-.901.066.331-.41.12-.291.402.073.173.272.119.414.106.407-.037.81-.113 1.218-.143.245-.018.542-.07.596.306.295-.027.724-.51.797.238.007.073.143.228.285.07-.097-.247-.323-.53.166-.623.131-.025.245-.07.278-.214.045-.198.068-.436.362-.35.1.03.21.156.241.26a.343.343 0 0 1-.287.455c-.643.08-.26.5-.294.78v.304c.269.516.784.208 1.173.326.775.237 1.563.62 2.404.34.46-.154.256.514.617.414.182-.542.605-.752 1.061-.59.59.207 1.2.363 1.912.575-.566.471-1.054.343-1.582.098-.296-.138-.664-.54-.925.068.61.412 1.49.19 2 .863.132.175.323-.042.485-.09.295.174.603.33.882.527.215.152.074.221-.103.246-.013.24.187.389.325.641-.322.02-.46-.078-.482-.339l-.152.002c-.028.605-.177 1.195-.181 1.808-.003.379-.307.654-.75.66l-.003.46c.464.328.406.771.089 1.09-.258.26-.681.365-1.02-.004l-.132-.156c-.131.183-.277.358-.216.612.13.542-.115.97-.433 1.374.005.188.025.383-.19.486l.154 1.074.63 1.128c.197-.275.21.127.34.092-.061-.287.15-.438.311-.614-.276-.025-.334-.192-.278-.427.028-.116.118-.171.227-.151.253.047.188.26.207.426.29-.22.615-.376.97-.439.414-.073.435.137.274.44.595.043.743.494.762.945.025.61-.261 1.218-.052 1.862-.15-.498-.713-.824-.472-1.45.263-.683-.5-.465-.706-.743-.214.024-.458-.07-.62.156h.003c.43.443.734 1.192.622 1.536.054.15.158.252.305.313.473.02.721.153.314.615.638.295.818.73.384 1.32-.191.26-.104.574-.23.839.036.236.393.24.385.617-.471-.4-1.215-.415-1.159-1.233l-.469.154.778 1.231.158.154c.613.108 1.007.37.773 1.076.05.009.137.003.147.028.581 1.372 1.98 1.562 3.116 2.13.1-.01.237.02.296-.033.379-.34 1-.316 1.302.082.177.232.084.383-.19.403-.263.02-.51.038-.63.32.152.01.358-.039.424.12.306.75.879.927 1.64.694-.018.374-.339.162-.394.391l.514.478a5.05 5.05 0 0 0-.034.03l.007.002.027-.032c.153-.006.388.048.445-.029.345-.462.305.041.47.107.798.318 1.146 1.336 2.127 1.32.595-.01 1.037.224 1.295.768l4.355 1.213c.123-.161.301-.127.47-.131l1.085-.156.157-.46-.157-.002c-.57.115-1-.175-1.497-.486.604-.365.996.359 1.501.178.242.03.566-.105.617.304.05.492-.284.48-.62.467a.982.982 0 0 1-.623.617l.305.248c.34-.04.637.01.784.37l1.277 1.38 1.044.654c.258-.263.53-.376.833-.068.301.307.652.335 1.036.187l.002.002-.002-.002c.366-.039.715.038 1.055.164.018.006.03.028.045.043l-.165.105c-.023.236.212.298.31.451.365-.126.856.291 1.13-.267.03-.06.185.02.244.116.051.082.107.16.16.241.228-.52.627.087.946-.143.186-.133.497-.368.744.162.195.419.256-.261.484-.247.197.93-.659 1.446-.836 2.227-.288-.012-.224-.446-.53-.38l-.036-.072-.016.014.051.058c.169.5.16 1.017.147 1.534-.043.154.087.497-.28.32-.197-.095-.333-.266-.472.038.342.107-.23.64.31.654.254.006.264.194.285.374-.04.6-.01 1.19.44 1.652.23.237-.179.712.338.814.316.377.095.82.152 1.229.186.115.158.302.16.476.004.262.162.19.31.145.33-.438-.3-.78-.139-1.17 1.343.851 1.004 2.297 1.212 3.547.084.51.19 1.034.031 1.576-.087.297-.223.366-.48.358l-.158.003c.02.217-.033.5.358.366.184-.063.388-.075.38.185-.01.24-.249.176-.41.222-.271.078-.519-.257-.786-.026l-.036.014c.005.008.008.016.014.024l.022-.038c.127.167.524.195.243.572-.086.116-.111.545.292.212.165.253.287.519.195.827-.16.542-.533 1.025-.402 1.653.025.12-.207.03-.321-.002a.15.15 0 0 0-.026.12c.132.372 0 .626-.358.778-.053.139-.11.276-.157.417-.363 1.088-.314 1.22.657 1.806.104-.21.3-.198.49-.2-.102-.252-.31-.378-.665-.484.735-.24 1.166-.65 1.222-1.378.158.843-.342 1.673-.014 2.51l-.54-.646c-.007.146-.054.27-.202.332.097.559.633.85.834 1.345.87.77.893.786.221 1.735-.488.69-.735 1.372-.454 2.224.203.616-.12 1.143-.51 1.616-.377.456-.771.905-.855 1.523.17.356-.043.724.034 1.084.191-.09.098-.324.263-.482.168.844-.147 1.711.325 2.503.148.248-.052.636-.277.901 0 .104-.002.208-.004.312.666.006.307.693.627.927.236.409.238.817 0 1.226l-.157.929.277-.004c-.33.737.287 1.375.223 2.113-.04.471-.469.798-.346 1.28-.577-.384-.279-.966-.286-1.45-.005-.39.046-.78-.03-1.17l-.3.467c.023.508-.02 1.013.05 1.526.065.475-.148.868-.72.917-.534.753-.306 1.715-.703 2.506l-.012.294c.012.52-.288 1.116-.641 1.407-.19.155-.314.387-.468.585.016.498.871.65.544 1.295-.32.065-.253-.343-.477-.385l-.225.637.012 1.383.148-.001c.148.76.335 1.517.416 2.284.023.213-.059.723-.588.477-.176-.082-.284.076-.24.167.313.667-.1 1.255-.236 1.846-.2.872.038 1.847-.595 2.617v1.237c.164.887-.274 1.747-.08 2.667.072.334-.4.788.033 1.21.07.07-.007.202-.119.236-.15.044-.232-.04-.292-.173-.197-.44-.209-.898-.126-1.358.155-.854.296-1.708.273-2.58l-.155-.001-.203.13c-.168.176-.12.396-.122.606v0c-.014.374.149.77-.138 1.111l-.002 1.227c.258.235.138.533.139.811l.47 1.327.011 5.57c-.022.497.188.96.245 1.541-.26-.62-.56-.247-.836-.152l-.061.155.015.271.001 2.223a.227.227 0 0 0 .02.116c.246.238.143.532.132.811l.75 3.522c.359.247.155.606.188.918a54.758 54.758 0 0 1-.066-.197c.001.075.009.147.066.197-.051.424.092.82.17 1.227.26.235.131.533.132.81l.013.42c.173.12.177.303.162.48-.093 1.128.18 2.258-.013 3.386-.018-.105-.031-.21-.045-.315-.007.107-.015.213.045.315l-.004-.006c.371.599.108 1.25.16 1.875-.093 1.023.5 1.744 1.148 2.404.509.518 1.105.952 1.662 1.424a.099.099 0 0 0 .023.023l-.023-.023c.522-.04.698.302.812.717.08.287.167.572.25.858.065-.1.236-.11.221-.04-.098.468.204.954-.073 1.407-.008.012-.049.015-.07.008-.021-.007-.037-.032-.056-.049-.098.08-.197.158-.295.236.31.545-.203 1.087-.005 1.631.975.23.444.991.586 1.516-.228-.267.02-.735-.437-.9-.12.677-.036 1.33.109 2.006.167.78-.388 1.321-.886 1.842v.46l.002 1.237c.309.379.084.824.156 1.233.838.087.95.309.618 1.23.588.413-.098.617-.155.924.462.067.259.395.315.663-.352-.053-.34-.338-.467-.508-.31.116-.524.296-.47.667.054.357-.077.69-.154 1.029.21.158.17-.177.31-.155.052-.308-.126-.654.157-.924.87.513.322 1.027 0 1.54-.515.472-.4 1.082-.406 1.681-.004.488.16 1.045-.364 1.41l-.04-.029-.008.015.048.015c.485.64.756-.33 1.275-.09.06.045-.091.092-.148.136-.163.129-.132.273-.025.4.056.065.177.128.254.114.194-.037.186-.216.187-.368.004-.374.001-.748.075-1.13.038.743.16 1.426.54 2.102.147.26.42.872-.082 1.256-.034.025-.056.097-.047.14.238 1.21-.715 2.063-.95 3.13.194.246.392.337.577-.032.195.637-.15.86-.66.984-.146-.306-.04-.631-.067-.945l-.04-.035-.246.353a.827.827 0 0 1-.196.588c.07 2.21.413 4.375 1.126 6.476l.131-.149c-.215-.828.01-1.74-.488-2.518-.073-.115-.197-.304.057-.347.123-.021.4-.022.392.131-.025.478.295.644.584.926.187.182.06.68.074 1.037.103 0 .207-.01.308.003.234.027.58-.108.6.286.016.34-.156.603-.55.576-.304-.021-.336.158-.354.376.145.41.654.823-.014 1.224-.4.15.277.676-.274.773a.28.28 0 0 0-.022.146l.16.164c.233.46.223.92.008 1.383l-.004.467c.263.316.475.652.439 1.087-.253.564-.157 1.123.023 1.681.11.155.221.31.332.463.042 0 .083-.002.124-.003.264-.672-.293-1.235-.253-1.88.007-.122-.04-.247-.067-.392.212-.07.206.327.395.172.148-.122.169-.543.474-.233.184.187.027.428-.123.619-.08.102-.13.22-.034.388.326.089.307-.453.674-.373.011.48-.252 1.096-.17 1.384.217.77-.367 1.208-.42 1.815-.036.4-.26.526-.624.502l.46.465h.621c.1.77.062 1.538-.035 2.306-.001.013-.039.03-.058.03-.024-.001-.047-.02-.07-.03l-.305.159zm-1.677-154.07l-.088-.09c-.001.028.003.055.004.082.03.001.058.004.084.008zm-11.412 2.027l-.013-.03c-.004.016-.004.032-.006.048l.02-.018zm.634-6.295c.389-.829.353-1.552-.346-2.192-.288.054-.37.318-.525.508-.583.71-1.246 1.247-2.26.995-.477-.3-1.184-.314-1.315-1.042l.228-.278c.281-.113.522.004.762.13.37.376.641.107.914-.14.677-.611 1.124-1.37 1.52-2.182.374-.77.891-.837 1.594-.297.176.106.304.232.21.452h.007c.25.15.271.647.598.568.314-.076.115-.45.142-.699-.01-.01-.015-.02-.025-.03l-.002-.003c-.135-.104-.15-.256-.153-.413a95.367 95.367 0 0 0-.003-.017l-.27-.327.001-.92c.527-.276.466-.763.45-1.234l-.116-.31-.298-.627a.27.27 0 0 1-.077-.12 1.42 1.42 0 0 1-.139-.025l-.199-.428c-.164-.215-.628-.22-.47-.66.54-.456.765.202 1.143.319.14.31.438.537.481.899l-.05.04.008.007.042-.047c.056.11.11.223.169.332.317.596.19 1.316.538 1.9.131.221.258.616.558.118l.145-.557c.21-.63 1.016-.96.898-1.755l-.195-.757-.274-.485c-.338-.406-.306-.961-.575-1.394l-.861-2.893c-.306-.247-.283-.633-.404-.956-.091-.244-.005-.47.22-.581.267-.131.422.058.537.274a.48.48 0 0 1 .14.02.21.21 0 0 0 .048.137l.581 2.004c.354.738.54 1.53.755 2.312.07.19.14.38.208.571.037.021.075.04.115.054.274.892.132 1.992 1.257 2.455l.314.046.328-.49.322-.913-.011-.01c.078-.22-.369-.706.318-.619l.943-1.521a.637.637 0 0 0 .12-.04c.203-.357.412-.712.75-.967.568-.815 1.163-1.603 2.042-2.121.198-.232.463-.314.756-.334.214-.159.43-.177.647-.008.252.114.186.303.118.493l-.274.132c-.75.542-1.522 1.061-2.058 1.84l-.215.085c.004.006.01.01.012.016-.086.535-.552.792-.866 1.16-.173.139-.202.409-.445.484l-.174.421-1.7 2.176c-.07.241-.37.345-.377.622.355.43.587.933.839 1.423a.423.423 0 0 0 .012.129c.171.21.213.421.165.614.31-.612.926-.999 1.545-1.382a.792.792 0 0 1 .12-.055.13.13 0 0 1 .024-.115l-.006-.255c.01-.621-.036-1.263.639-1.628a.55.55 0 0 1 .622.021c.123.294-.133.529-.127.805.045.098.065.192-.047.262-.33.516-.241 1.15-.513 1.696-.411.827-1.078 1.473-1.533 2.267-.34.594-.465 1.179-.107 1.803l.928-.603.006.146c.652-.22 1.23-.154 1.67.432.326.746.176 1.528.173 2.299l-.146.316c.101.593-.25 1.152-.132 1.746l.282-.361c.06.405-.177.818.026 1.22l-.06.032.009.009.05-.04c.264.231.621.398.586.835l.17.127c.072.283.628.51.21.829-.326.248-.685.007-.946-.275-.03-.032-.028-.093-.04-.14l-.122-.114-.342-.17-.489-.768-.147-.433-.002-.004c-.604-.919.136-1.949-.246-2.9-.355.051-.396.444-.654.596-.902.718-1.518 1.61-1.71 2.76l-.037-.2c-.306.526-.087.772.46.783.416.008.82.043 1.223.149.751.196.949.559.724 1.288-.36 1.171-.789 2.31-1.448 3.352-.155.357-.35.631-.809.662a.71.71 0 0 0-.597.404c-.14.163-.147.392-.267.565a.28.28 0 0 1 .151.08c-.117.575-.338 1.142-.136 1.742a.226.226 0 0 1-.079.124l.089.117c-.043.244-.131.384-.378.162-.808-.519-.455-1.316-.493-2.02-.062-.17-.048-.299.156-.32l-.005-.025.048-.24.276-.366.295-.3c-.003-.252.174-.389.377-.403.526-.038.733-.388.896-.804.023-.404.168-.775.315-1.145v-.001c.062-.272.19-.534.133-.824-.604.12-1.198.31-1.828.228l-.313.064c-.025-.027-.05-.054-.077-.08-.157.154-.264.347-.392.523l-1.56 1.405c-.693.495-1.496.769-2.254 1.137-.46.223-.797.323-1.145-.104a2.1 2.1 0 0 0-.017.149c-.292-.082-.46-.266-.486-.571-.276-.37-.263-.846-.463-1.243l-.126-1.542.009-1.993c-.135-.196-.295-.391-.558-.272-.204.094-.094.318-.093.482.004.754.078 1.511-.155 2.248l-.297.475.008-.006c-.136.665-.588 1.126-1.075 1.54-.265.226-.682.305-.9-.007-.237-.338.048-.552.39-.648l.184-.12.439-.479.17-.442c.063-.067.087-.156.138-.23a.427.427 0 0 1 .313-.152c.026-.246-.004-.482-.144-.698-.184-.29.035-.64-.142-.931-.213-.988-.424-1.975-.68-2.956-.169-.65-.478-1.369.03-2.037a.086.086 0 0 1 .021-.074l.188-.321c.404-.34.808-.135 1.211 0 .471.271.813.738 1.367.885l.028.046.015-.01a3.54 3.54 0 0 1-.043-.036c.12-.44.183-.905.374-1.312zM12.942 204.178l.088.091c.002-.029-.003-.055-.004-.083a.636.636 0 0 1-.084-.008zm11.412-2.026c.005.01.008.02.014.029l.006-.048c-.007.007-.012.013-.02.019zm-.633 6.295c-.39.828-.353 1.551.345 2.192.289-.055.37-.318.526-.508.583-.71 1.245-1.247 2.26-.996.476.3 1.184.314 1.314 1.042l-.227.279c-.282.113-.523-.004-.763-.13-.37-.376-.64-.107-.914.14-.676.61-1.123 1.37-1.519 2.182-.375.77-.892.836-1.595.297-.176-.106-.304-.233-.21-.453l-.006.001c-.25-.15-.272-.648-.599-.568-.314.076-.115.45-.141.698.009.01.014.02.024.03l.002.004c.136.104.15.256.153.413l.003.017.27.327v.92c-.527.276-.467.763-.45 1.234l.115.31.298.626a.266.266 0 0 1 .078.12c.046.007.092.015.138.026l.2.427c.164.215.627.221.47.661-.54.455-.765-.202-1.144-.32-.14-.31-.437-.537-.48-.898l.05-.04-.008-.007-.043.047c-.056-.11-.11-.223-.168-.333-.317-.595-.19-1.315-.538-1.9-.132-.22-.26-.615-.559-.117l-.145.557c-.209.63-1.016.96-.897 1.754l.194.758.274.484c.338.406.307.962.576 1.395l.86 2.893c.307.246.283.632.404.956.092.244.006.47-.22.581-.266.13-.421-.059-.536-.274a.476.476 0 0 1-.141-.02.208.208 0 0 0-.047-.138l-.582-2.003c-.354-.738-.54-1.53-.755-2.313l-.208-.57a.785.785 0 0 0-.114-.055c-.275-.89-.132-1.992-1.257-2.455l-.314-.046-.328.491-.323.913.012.01c-.079.22.368.706-.318.619-.315.507-.63 1.014-.943 1.521a.627.627 0 0 0-.12.039c-.204.358-.412.713-.751.968-.567.814-1.162 1.602-2.042 2.12-.198.232-.463.314-.756.335-.214.159-.43.176-.647.007-.252-.114-.186-.303-.118-.492l.274-.132c.751-.542 1.523-1.061 2.058-1.84l.215-.086c-.003-.005-.009-.009-.012-.015.086-.536.552-.793.866-1.16.174-.139.202-.409.446-.484l.173-.421 1.701-2.176c.07-.241.369-.345.376-.623-.355-.43-.586-.932-.838-1.422a.43.43 0 0 0-.012-.13c-.172-.21-.214-.42-.166-.613-.31.612-.925.998-1.544 1.382a.803.803 0 0 1-.12.054.13.13 0 0 1-.024.116l.006.255c-.01.62.036 1.263-.64 1.627a.55.55 0 0 1-.621-.02c-.123-.294.133-.53.126-.805-.044-.098-.064-.192.048-.262.33-.516.24-1.15.512-1.696.412-.828 1.079-1.474 1.533-2.267.34-.594.465-1.179.107-1.803l-.928.603a5.785 5.785 0 0 0-.005-.146c-.653.22-1.23.153-1.671-.432-.326-.747-.176-1.528-.173-2.299l.146-.317c-.1-.592.251-1.151.132-1.745l-.281.361c-.06-.406.177-.818-.027-1.22l.061-.032-.009-.01-.051.041c-.263-.231-.621-.398-.585-.835l-.17-.127c-.072-.284-.628-.51-.21-.83.325-.248.684-.007.945.275.03.032.028.094.041.141l.121.114.342.17.49.768.146.432.002.005c.605.918-.135 1.948.246 2.9.356-.051.397-.445.655-.596.901-.718 1.517-1.61 1.71-2.76l.036.2c.306-.526.088-.772-.46-.783a5.19 5.19 0 0 1-1.223-.15c-.75-.195-.948-.558-.723-1.288.36-1.17.788-2.31 1.448-3.351.155-.357.35-.632.808-.662a.71.71 0 0 0 .597-.404c.14-.164.147-.392.268-.565a.279.279 0 0 1-.152-.08c.117-.575.338-1.142.136-1.743a.225.225 0 0 1 .08-.123l-.09-.117c.043-.244.132-.384.378-.163.809.52.455 1.317.493 2.02.063.172.048.3-.156.321l.005.025-.048.24-.276.366-.294.3c.003.252-.174.388-.377.403-.527.038-.734.388-.897.804-.022.404-.168.774-.315 1.144v.002c-.061.272-.19.533-.132.824.603-.12 1.198-.31 1.827-.228l.313-.064.077.08c.158-.154.264-.347.392-.523l1.56-1.405c.693-.495 1.497-.77 2.254-1.137.46-.223.797-.324 1.146.104.007-.05.012-.1.016-.149.292.082.461.266.486.57.277.37.263.846.464 1.244l.126 1.542-.01 1.993c.136.196.296.391.558.271.204-.093.095-.317.094-.481-.005-.754-.079-1.511.154-2.249l.297-.474-.008.006c.137-.665.589-1.126 1.076-1.541.264-.225.681-.304.9.008.236.338-.049.552-.39.648l-.184.119-.44.48-.17.442c-.062.066-.087.155-.137.229a.426.426 0 0 1-.313.152c-.026.247.004.483.143.699.185.29-.035.64.143.93.212.99.424 1.976.679 2.957.17.65.479 1.368-.03 2.036a.086.086 0 0 1-.02.075l-.189.32c-.404.341-.807.136-1.21.001-.472-.271-.814-.739-1.367-.885l-.029-.047-.014.012.043.035c-.12.44-.183.905-.374 1.312zm112.944-4.177l.088-.091a.636.636 0 0 1-.084.007c0 .028-.005.054-.004.083zm-11.337-2.089l.013-.03-.02-.018c.003.016.003.032.007.048zm.301 8.458c.699-.64.735-1.364.346-2.192-.191-.407-.253-.873-.374-1.312l.043-.036c-.006-.003-.01-.008-.015-.01l-.028.046c-.554.146-.896.614-1.367.885-.403.135-.807.34-1.21 0l-.189-.321a.086.086 0 0 1-.02-.075c-.51-.668-.2-1.386-.03-2.036.254-.98.466-1.968.679-2.956.177-.291-.042-.642.142-.931.14-.216.17-.452.144-.699a.427.427 0 0 1-.313-.152c-.05-.073-.075-.163-.138-.23l-.17-.442-.44-.48-.184-.118c-.341-.096-.626-.31-.39-.648.22-.312.636-.233.9-.008.488.414.94.876 1.076 1.541-.003-.002-.005-.005-.008-.006l.297.474c.233.738.16 1.495.155 2.249-.001.164-.11.388.093.481.263.12.423-.075.558-.271l-.01-1.993.127-1.542c.2-.398.187-.874.464-1.243.024-.306.193-.49.485-.57.004.049.01.098.017.147.348-.427.686-.327 1.145-.103.758.368 1.561.642 2.255 1.137l1.56 1.404c.127.177.234.37.391.524l.077-.08.313.064c.63-.083 1.224.108 1.828.228.057-.29-.071-.552-.132-.824v-.002c-.148-.37-.293-.74-.316-1.144-.163-.416-.37-.766-.896-.804-.203-.015-.38-.151-.377-.404l-.295-.3-.276-.365-.048-.24.005-.025c-.204-.021-.218-.15-.156-.32.038-.704-.315-1.502.493-2.02.246-.222.335-.082.378.162l-.089.117c.037.031.067.07.08.124-.203.6.018 1.167.135 1.742a.28.28 0 0 1-.151.08c.12.173.127.402.267.565a.71.71 0 0 0 .597.404c.459.03.654.305.808.662.66 1.042 1.088 2.18 1.449 3.351.225.73.027 1.093-.724 1.289a5.18 5.18 0 0 1-1.222.149c-.548.01-.767.257-.461.784l.037-.201c.192 1.15.808 2.042 1.71 2.76.258.151.299.545.654.595.382-.95-.358-1.98.246-2.9l.002-.003.147-.433.49-.768.341-.17.121-.114c.013-.047.011-.108.04-.14.262-.282.622-.524.947-.275.418.318-.138.545-.21.829l-.17.126c.035.438-.322.605-.585.836l-.051-.04a.388.388 0 0 0-.01.01l.061.03c-.203.403.033.815-.026 1.221l-.282-.361c-.119.594.233 1.153.132 1.746.05.105.098.21.146.316.003.77.153 1.552-.173 2.299-.44.585-1.018.651-1.67.432a5.765 5.765 0 0 0-.006.146l-.928-.603c-.358.624-.233 1.209.107 1.803.455.793 1.122 1.44 1.534 2.267.27.546.182 1.18.511 1.696.112.07.093.164.048.262-.006.276.25.51.127.805a.55.55 0 0 1-.622.02c-.675-.364-.63-1.006-.64-1.627l.007-.255a.131.131 0 0 1-.024-.116.79.79 0 0 1-.12-.054c-.62-.384-1.235-.77-1.545-1.382.048.192.006.403-.165.614a.429.429 0 0 0-.012.129c-.252.49-.484.992-.839 1.422.007.278.307.382.376.622l1.7 2.177c.06.14.117.28.175.421.244.075.272.345.446.483.313.368.779.625.865 1.16-.003.007-.008.01-.012.016l.215.086c.536.779 1.307 1.298 2.058 1.84l.274.132c.068.19.134.378-.118.492-.217.17-.433.151-.647-.007-.292-.02-.558-.102-.756-.334-.88-.519-1.474-1.307-2.041-2.121-.34-.255-.548-.61-.752-.968a.621.621 0 0 0-.12-.039l-.942-1.521c-.687.087-.24-.4-.319-.62v.001l.012-.01-.323-.912-.327-.492-.314.046c-1.125.463-.983 1.564-1.257 2.455a.774.774 0 0 0-.115.055l-.208.57c-.215.783-.4 1.575-.755 2.313l-.581 2.003a.209.209 0 0 0-.047.137.48.48 0 0 1-.141.02c-.115.216-.27.406-.536.275-.226-.11-.312-.337-.221-.581.122-.324.098-.71.404-.956l.86-2.893c.27-.433.238-.989.576-1.394l.274-.485.195-.758c.118-.795-.689-1.124-.898-1.755l-.145-.556c-.3-.499-.427-.103-.558.118-.348.583-.221 1.304-.538 1.9-.059.11-.113.221-.169.332l-.042-.048-.009.008.051.04c-.043.361-.341.589-.48.899-.38.117-.604.775-1.145.32v-.001c-.157-.44.307-.446.471-.66l.2-.428c.045-.011.091-.02.137-.025a.274.274 0 0 1 .078-.12l.298-.626.116-.311c.016-.471.077-.958-.45-1.235v-.92l.269-.326.003-.017c.003-.157.018-.309.153-.413l.002-.003c.01-.01.015-.02.024-.03-.026-.249.174-.623-.14-.699-.328-.08-.349.419-.6.568h-.006c.094.22-.033.346-.21.452-.703.54-1.22.474-1.595-.297-.395-.812-.843-1.571-1.519-2.183-.273-.246-.544-.515-.914-.14-.24.127-.481.244-.762.13l-.228-.278c.131-.728.838-.742 1.314-1.042 1.015-.251 1.678.286 2.26.996.157.19.238.453.526.508z"/>
        <g fill="#000" fill-rule="nonzero" opacity=".4">
            <path d="M75 188.198c-3.9 0-7.063 3.135-7.063 7.003 0 2.667 1.516 4.973 3.73 6.154v2.133c.56.749 1.666.917 1.666.917v-1.653h.834v1.652h1.666v-1.652h.834v1.653s1.106-.168 1.666-.917v-2.133c2.214-1.182 3.73-3.487 3.73-6.154 0-3.868-3.162-7.003-7.063-7.003zm-3.333 9.597a2.074 2.074 0 0 1-2.084-2.066c0-1.14.934-2.065 2.084-2.065s2.083.925 2.083 2.065a2.074 2.074 0 0 1-2.083 2.066zm1.666 1.652l1.667-2.1 1.667 2.1h-3.334zm5-1.652a2.075 2.075 0 0 1-2.083-2.066c0-1.14.933-2.065 2.083-2.065 1.151 0 2.084.925 2.084 2.065a2.074 2.074 0 0 1-2.084 2.066zm3.784 2.4L85 203.052l-2.197 2.178-2.9-2.875a8.755 8.755 0 0 0 2.214-2.162zm-14.334-9.856L65 187.58l2.197-2.178 2.766 2.743a8.738 8.738 0 0 0-2.18 2.194zm12.254-2.194l2.766-2.743L85 187.58l-2.783 2.76a8.738 8.738 0 0 0-2.18-2.195zm-9.94 14.21l-2.9 2.876L65 203.053l2.883-2.859a8.755 8.755 0 0 0 2.214 2.162zM75 26.592c-3.9 0-7.063 3.134-7.063 7.002 0 2.668 1.516 4.973 3.73 6.154v2.133c.56.749 1.666.917 1.666.917v-1.653h.834v1.652h1.666v-1.652h.834v1.653s1.106-.168 1.666-.917v-2.133c2.214-1.182 3.73-3.486 3.73-6.154 0-3.868-3.162-7.002-7.063-7.002zm-3.333 9.596a2.074 2.074 0 0 1-2.084-2.065c0-1.14.934-2.066 2.084-2.066s2.083.925 2.083 2.066a2.074 2.074 0 0 1-2.083 2.065zm1.666 1.652L75 35.741l1.667 2.1h-3.334zm5-1.652a2.075 2.075 0 0 1-2.083-2.065c0-1.14.933-2.066 2.083-2.066 1.151 0 2.084.925 2.084 2.066a2.074 2.074 0 0 1-2.084 2.065zm3.784 2.4L85 41.445l-2.197 2.178-2.9-2.875a8.755 8.755 0 0 0 2.214-2.162zm-14.334-9.856L65 25.974l2.197-2.18 2.766 2.744a8.738 8.738 0 0 0-2.18 2.194zm12.254-2.194l2.766-2.743L85 25.974l-2.783 2.758a8.738 8.738 0 0 0-2.18-2.194zm-9.94 14.21l-2.9 2.876L65 41.446l2.883-2.859a8.755 8.755 0 0 0 2.214 2.162z"/>
        </g>
        <g fill="#08131A" fill-rule="nonzero">
            <path d="M44.946 59.165c0-1.674 1.134-3.222 3.69-3.222 2.376 0 3.636 1.548 3.636 3.222 0 1.62-1.26 3.168-3.636 3.168-2.556 0-3.69-1.548-3.69-3.168zm9.954 8.784V55.997c0-.522-.18-.72-.612-1.008-.324-.216.054-.954.504-.756l1.224.54c.576.252.594.396.594.846v10.242c0 .918-.936 1.89-1.296 2.16-.162.126-.414.09-.414-.072zm1.44 3.402h-7.272c-.558 0-1.386-.09-1.386-1.062v-1.548c0-.594-.018-.864-.414-1.008-.288-.108-.432-.198-.432-.45v-.684l1.728.216c.846.108.828.648.828 1.296v1.404c0 .378 0 .576.45.576h2.664c1.116 0 2.142-.144 2.664-.288.288-.072.414-.09.72.036l.738.288c.54.198.54.342.468.684-.09.414-.162.54-.756.54zm-8.676-7.614c-.18-.054-.324-.126-.306-.414l.072-.702 1.674.162c.594.054.63.45.63.684v.666c1.296-.18 2.682-.414 3.726-.72.09-.018.306.072.45.144.396.216.594.684.324.792-1.98.738-5.328 1.116-6.948 1.296-.72.072-2.34.216-3.168.198-.216 0-.558-.018-.882-.162-.126-.054-.144-.216-.108-.486l.144-.882c.972.18 2.502.162 3.888.072.27-.018.576-.036.9-.072-.018-.324-.09-.486-.396-.576zm.972-6.462c-1.332 0-1.98.828-1.98 1.854 0 1.026.648 1.872 1.98 1.872 1.278 0 1.926-.846 1.926-1.872 0-1.026-.594-1.854-1.926-1.854zm18.594 4.662c-.18-.054-.36-.198-.342-.486l.054-.63 1.674.144c.594.036.63.432.63.666v2.232c2.106-.072 3.258-.144 4.788-.288.792-.072 1.26-.126 1.494.054l.738.594c.306.252.27.468.144.702-.162.306-.306.378-.486.342a12.454 12.454 0 0 0-1.224-.198c-.99-.09-3.834-.09-6.264 0l-6.408.234c-.45.018-1.296.054-1.638-.036-.198-.054-.306-.252-.252-.54l.198-1.026c1.008.198 3.384.234 3.834.234 1.332 0 2.448 0 3.438-.018v-1.224c0-.468 0-.648-.378-.756zm2.448-5.184c-.216.522-.504.99-.828 1.422l2.268 1.17a3.7 3.7 0 0 0 1.008.342c.486.09.684.198.99.612l.36.486c.252.342.162.576 0 .738-.27.288-.54.342-.936.108l-4.392-2.592c-1.368 1.44-3.06 2.34-3.78 2.646-.27.108-.576.27-.882.216-.288-.054-.522-.18-.576-.486-.054-.234.18-.45.342-.522 1.71-.756 4.194-2.754 4.716-4.356.036-.09-.018-.18-.18-.288l-.324-.234c-.36-.252.072-1.008.396-.882l1.422.522c.378.144.666.432.396 1.098zm3.024 14.814h-7.38c-.558 0-1.386-.09-1.386-1.062v-1.98c0-.594-.018-.864-.414-1.008-.288-.108-.432-.198-.432-.45v-.702l1.728.234c.846.108.828.648.828 1.296v1.782c0 .378 0 .576.45.576h2.772c1.116 0 2.142-.144 2.664-.288.288-.072.414-.09.72.036l.738.288c.54.198.54.396.468.738-.09.414-.162.54-.756.54zm8.262-.558l-.09-4.086c-.018-.594-.018-.828-.342-.99-.234-.108-.396-.18-.396-.432v-.576l1.602.144c.792.072.774.576.792 1.224l.054 3.69 4.968-.054c.306 0 .378-.126.378-.45v-1.224l-3.798.072c-.27 0-.396-.036-.522-.234l-.504-.81c-.108-.18.054-.378.324-.306l.414.09c.162.036.504.036.63.036l3.456-.054v-.558c0-.594-.054-.756-.432-.9-.198-.072-.36-.198-.36-.468v-.558l1.674.126c.774.072.774.666.774 1.314v4.5c0 .432-.216.648-.774.648l-6.192.036v.072c0 .198-.126.414-.234.522-.18.18-.432.36-.918.27-.216-.036-.36-.27-.414-.414a2.121 2.121 0 0 1-.09-.63zM82.8 58.823c-.09.216-.198.432-.306.648l1.998 1.368c.378.306.648.378 1.026.54.432.18.648.324.864.774l.216.522c.144.324.072.594-.144.72-.342.216-.594.252-.9 0l-3.672-2.898c-.972 1.368-2.358 2.52-3.708 3.204-.324.162-.846.432-1.188-.036-.162-.216-.09-.576.162-.72 2.556-1.548 3.672-3.474 4.014-4.662a.417.417 0 0 0-.036-.306 3.148 3.148 0 0 0-.756-.504c-.324.018-.684.036-1.08.072-.63.036-1.062.054-1.368-.18-.18-.126-.198-.324-.18-.54l.126-.846c1.008.162 1.728.216 2.538.234.648.018.972 0 1.458-.018.828-.036 1.692-.09 2.52-.216.306-.054.54-.072.72-.072.324 0 .45.054.63.162l.486.27c.414.234.414.396.216.828-.18.396-.288.468-.702.378-.306-.072-.612-.18-.936-.198a16.49 16.49 0 0 0-2.502-.018c.234.162.45.324.522.432.144.234.216.45-.018 1.062zm5.292 5.04v-7.866c0-.522-.18-.72-.612-1.008-.324-.216.054-.954.504-.756l1.224.54c.576.252.594.396.594.846v4.032l.27-.018c.378-.018.594-.036 1.17-.198.486-.144.612-.27.99-.036l.918.558c.198.108.234.288.09.468l-.342.396c-.144.18-.432.198-.666.126a1.744 1.744 0 0 0-.648-.108h-1.782v.936c0 .918-.936 1.89-1.296 2.16-.162.126-.414.09-.414-.072zm17.568 7.56V55.997c0-.522-.18-.72-.612-1.008-.324-.216.054-.954.504-.756l1.224.54c.576.252.594.396.594.846v13.716c0 .918-.936 1.89-1.296 2.16-.162.126-.414.09-.414-.072zm-11.286-9.18c0-2.232 1.566-3.78 4.05-3.78 2.412 0 4.014 1.548 4.014 3.78 0 2.25-1.638 3.78-4.014 3.78-2.376 0-4.05-1.53-4.05-3.78zm4.05-2.376c-1.53 0-2.34 1.008-2.34 2.376 0 1.278.81 2.376 2.34 2.376 1.53 0 2.304-1.098 2.304-2.376 0-1.368-.774-2.376-2.304-2.376zM49.548 92.317V89.64c0-.396-.012-.552-.228-.66-.156-.072-.264-.12-.264-.288v-.384l1.068.096c.528.06.528.384.528.816v2.484l3.204-.048c.204 0 .252-.084.252-.3v-.792l-2.364.048c-.18 0-.252-.036-.348-.156l-.336-.54c-.084-.108.036-.252.216-.204l.276.06c.108.024.336.024.42.024l2.136-.036v-.564c0-.396-.036-.504-.288-.6-.132-.048-.24-.132-.24-.312v-.372l1.116.084c.516.048.516.444.516.876v3.168c0 .288-.144.432-.516.432l-4.044.024a.587.587 0 0 1-.156.336c-.12.12-.288.24-.612.18-.144-.024-.24-.18-.276-.276a1.414 1.414 0 0 1-.06-.42zm2.916 2.496l-4.272.156c-.3.012-.864.036-1.092-.024-.132-.036-.204-.168-.168-.36l.132-.684c.672.132 2.256.156 2.556.156.888 0 1.632 0 2.292-.012v-.024c0-.312 0-.432-.252-.504-.12-.036-.228-.12-.216-.312l.036-.432 1.104.096c.396.036.42.3.42.456v.684a47.66 47.66 0 0 0 3.192-.192c.528-.048.84-.084.996.036l.492.396c.204.168.18.312.096.468-.108.204-.204.252-.324.228a8.303 8.303 0 0 0-.816-.132c-.66-.06-2.556-.06-4.176 0zm2.964 4.128h-5.124c-.372 0-.924-.06-.924-.708v-1.044c0-.396-.012-.576-.276-.672-.192-.072-.288-.132-.288-.3v-.468l1.14.156c.564.072.552.432.552.864v.948c0 .252 0 .384.3.384h2.064c.744 0 1.428-.096 1.776-.192.192-.048.276-.06.48.024l.492.192c.36.132.36.228.312.456-.06.276-.108.36-.504.36zm3.324-7.632c0-1.308.876-2.424 2.592-2.424 1.656 0 2.58 1.116 2.58 2.424 0 1.392-1.008 2.424-2.58 2.424-1.608 0-2.592-1.032-2.592-2.424zm2.592-1.572c-.948 0-1.464.648-1.464 1.572 0 .96.516 1.572 1.464 1.572.996 0 1.452-.612 1.452-1.572 0-.924-.456-1.572-1.452-1.572zm4.644 6.444v-7.596c0-.348-.12-.48-.408-.672-.216-.144.036-.636.336-.504l.816.36c.384.168.396.264.396.564v6.456c0 .612-.624 1.26-.864 1.44-.108.084-.276.06-.276-.048zm.912 2.64h-4.848c-.372 0-.924-.06-.924-.708v-1.776c0-.396-.012-.576-.276-.672-.192-.072-.288-.132-.288-.3v-.456l1.152.144c.564.072.552.432.552.864v1.68c0 .252 0 .384.3.384h1.776c.744 0 1.428-.096 1.776-.192.192-.048.276-.06.48.024l.492.192c.36.132.36.228.312.456-.06.276-.108.36-.504.36zm10.02.048V88.585c0-.348-.12-.48-.408-.672-.216-.144.036-.636.336-.504l.816.36c.384.168.396.264.396.564v9.144c0 .612-.624 1.26-.864 1.44-.108.084-.276.06-.276-.048zm-.6-3.696c-1.344.516-3.372.876-4.452.972-.48.048-1.584.12-2.136.108-.144 0-.372 0-.588-.096-.084-.036-.096-.144-.072-.324l.12-.588c.648.12 1.668.108 2.592.036 1.152-.096 2.856-.348 4.032-.732.06-.024.204.048.3.108.24.156.384.444.204.516zm-6.312-3.684c0-1.392 1.032-2.364 2.58-2.364 1.488 0 2.568.972 2.568 2.364 0 1.464-1.116 2.364-2.568 2.364-1.548 0-2.58-.9-2.58-2.364zm2.58-1.5c-.828 0-1.428.54-1.428 1.5 0 .972.6 1.5 1.428 1.5.864 0 1.416-.528 1.416-1.5 0-.96-.552-1.5-1.416-1.5zm18.792 4.92l-3.324.048c-.18 0-.384.012-.564.024-.168 0-.576-.012-.708-.072-.168-.072-.288-.216-.264-.348l.096-.6c.804.132 1.644.156 2.256.156h.828c.888-.012 1.452-.06 2.34-.072.156 0 .36.036.456.108a.49.49 0 0 1 .144.372v1.812c0 .336-.204.504-.72.504l-3.864.048v.9c0 .204.012.324.288.324h1.872c.624 0 1.296-.108 1.608-.18.216-.06.336-.06.516.012l.42.168c.324.12.384.24.348.48-.06.324-.156.348-.516.348h-4.464c-.42 0-1.176-.084-1.176-.792v-.888c0-.276 0-.42-.12-.468-.216-.096-.372-.276-.372-.456V96l.876.072h.024l3.984-.048c.18 0 .192-.048.192-.192v-.78c0-.144-.036-.144-.156-.144zm.276-1.416v-4.908c0-.348-.12-.48-.408-.672-.216-.144.036-.636.336-.504l.816.36c.384.168.396.264.396.564v2.196l.132-.012c.252-.012.396-.024.78-.132.324-.096.408-.18.66-.024l.612.372c.132.072.156.192.06.312l-.228.264c-.096.12-.288.132-.444.084a1.163 1.163 0 0 0-.432-.072h-1.14v.78c0 .612-.624 1.26-.864 1.44-.108.084-.276.06-.276-.048zm-1.476-4.524c-.024 1.356-.588 3.156-1.008 3.96-.276.528-1.116.3-.924-.204.42-1.116.66-2.22.732-3.204l-.888.06c-.384.024-.66-.024-.744-.06-.108-.048-.168-.144-.132-.348l.108-.576c.492.096.804.108 1.092.108.408 0 .792-.084 1.008-.108h.024c.204-.012.492.096.648.216.06.048.084.108.084.156zm-3.888-.3c.204-.012.492.096.648.216.06.048.084.108.084.156-.048 1.164-.588 2.88-1.068 3.768-.288.54-1.14.3-.924-.192.396-.924.696-1.932.78-3.024l-.876.06c-.384.024-.66-.024-.744-.06-.108-.048-.168-.144-.132-.348l.108-.576c.492.096.804.108 1.092.108.42 0 .816-.084 1.032-.108zm11.376 3.288v1.608c0 .072.072.12.12.12 1.608-.06 3.432-.384 4.488-.84.072-.036.192-.048.348.06.228.156.42.408.108.564-1.644.816-3.552 1.008-5.04 1.152-.108.012-.444.012-.564.012-.216 0-.564-.324-.564-.564V92.58c0-.324.024-.492-.228-.612a.43.43 0 0 1-.264-.384v-.516l.984.06 2.748-.048c.18 0 .252-.084.252-.3l.024-.948c0-.216-.012-.24-.24-.228l-2.232.06a8.87 8.87 0 0 0-.576.024c-.132.012-.636.036-.816-.072-.084-.06-.108-.144-.096-.264l.084-.66c.612.12 1.596.132 2.52.108l2.112-.06c.132 0 .276 0 .348.072.072.072.096.144.084.324L101.1 91.5c-.024.276-.156.42-.528.42l-2.904.036zm5.808 4.392v-7.764c0-.348-.12-.48-.408-.672-.216-.144.036-.636.336-.504l.816.36c.384.168.396.264.396.564v6.624c0 .612-.624 1.26-.864 1.44-.108.084-.276.06-.276-.048zm.78 2.472h-4.872c-.372 0-.924-.06-.924-.708v-1.32c0-.396-.012-.576-.276-.672-.192-.072-.288-.132-.288-.3v-.468l1.152.156c.564.072.552.432.552.864v1.188c0 .252 0 .384.3.384h1.8c.744 0 1.428-.096 1.776-.192.192-.048.276-.06.48.024l.492.192c.36.132.36.264.312.492-.06.276-.108.36-.504.36zm-50.592 18.048v-10.284c0-.348-.12-.48-.408-.672-.216-.144.036-.636.336-.504l.816.36c.384.168.396.264.396.564v4.728l.228-.012c.252-.012.396-.024.78-.132.324-.096.408-.18.66-.024l.612.372c.132.072.156.192.06.312l-.228.264c-.096.12-.288.132-.444.084a1.163 1.163 0 0 0-.432-.072h-1.236v3.624c0 .612-.624 1.26-.864 1.44-.108.084-.276.06-.276-.048zm-1.848-8.7l-.024.432c-.06 1.116-.708 4.704-1.248 5.712-.276.516-1.14.324-.948-.168.276-.708.528-1.752.72-2.808-.936.144-2.064.24-3.144.276-.36.012-.564 0-.648-.036-.096-.036-.156-.156-.12-.36l.072-.552c.564.084.936.084 1.608.072.54-.012 1.644-.108 2.364-.228.096-.648.168-1.272.18-1.8-.312.012-.612.012-1.044.036-.792.036-1.176.06-1.956.108-.384.024-.684-.012-.768-.048-.108-.048-.168-.144-.132-.348l.096-.636c.492.072 1.248.132 1.536.132.444 0 .72-.012 1.224-.036.408-.024 1.056-.084 1.476-.12h.024c.204-.012.492.096.648.216.06.048.084.108.084.156zm8.4 3.384v-2.748c0-.288 0-.36-.096-.396-.276-.132-.48-.264-.48-.54v-.396l.696.048h.684c.48 0 3.66-.084 3.924-.108l.432-.06c.192-.036.384-.048.552.048l.24.132c.36.204.348.3.264.492-.12.288-.192.336-.624.336H61.32v2.856c0 .18 0 .276.252.276l2.196-.024c.66-.012 1.368-.072 1.644-.132.204-.036.324-.048.528.036l.384.156c.408.168.432.24.348.516-.072.264-.18.312-.54.3-.36-.012-.744-.012-1.248-.012h-.36l-3.252.036c-.42 0-1.056-.084-1.056-.816zm3.228 3.684l-4.272.156c-.3.012-.864.036-1.092-.024-.132-.036-.204-.168-.168-.36l.132-.684c.672.132 2.256.156 2.556.156a94.76 94.76 0 0 0 2.868-.036c1.752-.06 2.568-.096 3.708-.204.528-.048.852-.096.996.036l.492.396c.204.168.18.312.096.468-.108.204-.204.252-.324.228a8.303 8.303 0 0 0-.816-.132c-.66-.06-2.556-.048-4.176 0zm12.876-2.052l-3.504.048c-.18 0-.384.012-.564.024-.168 0-.576-.012-.708-.072-.168-.072-.288-.216-.264-.348l.108-.588c.804.132 1.296.156 2.244.156h.588c.888 0 1.872-.06 2.76-.072.156 0 .36.036.456.108a.49.49 0 0 1 .144.372v1.716c0 .336-.204.504-.72.504l-4.044.036v.912c0 .204.024.276.228.276h2.052c.624 0 1.296-.108 1.608-.18.216-.06.336-.06.516.012l.42.168c.324.12.384.24.348.48-.06.324-.156.348-.516.348h-4.584c-.42 0-1.176-.084-1.176-.792v-.828c0-.276 0-.42-.12-.468-.216-.096-.372-.24-.372-.42v-.372l.876.072h.024l4.164-.048c.18 0 .192-.048.192-.192v-.708c0-.144-.036-.144-.156-.144zm-.336-6.924l-3.132.06c-.18 0-.42 0-.6.012-.168.012-.552.036-.696-.024-.192-.084-.288-.264-.264-.408l.108-.54c.804.132 1.416.144 2.04.144 1.164 0 2.052-.036 3.216-.06.18 0 .372.024.456.12.072.072.144.168.144.384v1.416c0 .348-.204.528-.72.528l-3.756.048v.672c0 .216.072.264.3.264h1.68c.624 0 1.296-.096 1.608-.18a.764.764 0 0 1 .516.024l.42.168c.336.132.396.204.348.468-.048.288-.132.312-.516.312H72.78c-.42 0-1.104-.084-1.104-.816v-.54c0-.24 0-.372-.12-.42-.216-.096-.372-.24-.372-.444v-.36l.9.072c.024 0 .048.012.06.012l3.852-.06c.132 0 .156-.048.156-.192v-.492c0-.12-.024-.168-.168-.168zm-1.26 5.112l-4.272.156c-.3.012-.864.036-1.092-.024-.132-.036-.204-.168-.168-.36l.132-.684c.672.132 2.256.156 2.556.156a94.76 94.76 0 0 0 2.868-.036c1.752-.06 2.568-.096 3.708-.204.528-.048.84-.084.996.036l.492.396c.204.168.18.312.096.468-.108.204-.204.252-.324.228a8.303 8.303 0 0 0-.816-.132c-.66-.06-2.556-.048-4.176 0zm17.772-3.6v3.816c0 .276-.06.492-.432.492l-4.668.036c0 .192-.06.336-.18.432-.132.096-.456.156-.66.072-.06-.024-.18-.096-.204-.216-.024-.132-.036-.276-.048-.384l-.204-4.032-.216-.42c-.084-.156.06-.336.3-.456.276-.144.492-.12.6 0l.3.348 4.992-.06c.12 0 .276.012.336.072.048.036.084.132.084.3zm-1.104 3.18v-2.496c0-.204-.012-.228-.24-.228l-3.648.048c-.252 0-.252.096-.24.276l.096 2.748 3.78-.06c.18 0 .252-.072.252-.288zm-1.788 4.38l-4.272.156c-.3.012-.864.036-1.092-.024-.132-.036-.204-.168-.168-.36l.132-.684c.672.132 2.256.156 2.556.156.84 0 1.548 0 2.184-.012v-.864c0-.324-.024-.408-.336-.504-.132-.036-.228-.18-.204-.384l.036-.36 1.188.12c.42.048.444.3.444.456v1.5a49.166 49.166 0 0 0 3.264-.192c.528-.048.852-.096.996.036l.492.396c.204.168.18.312.096.468-.108.204-.204.252-.324.228a8.303 8.303 0 0 0-.816-.132c-.66-.06-2.556-.048-4.176 0zm11.856-2.136v2.628c0 .312-.384.936-.504 1.092-.132.192-.624.144-.624-.108v-3.48c0-.432-.12-.624-.3-.768a.318.318 0 0 1-.06-.072l-3.36.12c-.3.012-.864.036-1.092-.024-.132-.036-.204-.168-.168-.36l.132-.684c.672.132 2.256.156 2.556.156a94.76 94.76 0 0 0 2.868-.036c1.752-.06 2.568-.096 3.708-.204.528-.048.852-.096.996.036l.492.396c.204.168.18.312.096.468-.108.204-.204.252-.324.228a8.303 8.303 0 0 0-.816-.132c-.636-.06-2.388-.048-3.948 0 .336.216.348.48.348.744zm2.076-2.94l-4.824.012c-.372 0-.924-.06-.924-.708v-1.668c0-.408-.036-.576-.336-.672-.192-.06-.288-.132-.288-.3v-.396l.684.048h.804c.504 0 3.36-.084 3.54-.108.624-.072.84-.12.996-.036l.36.192c.336.18.336.264.264.432-.132.312-.216.348-.672.348h-4.212v1.656c0 .252 0 .384.3.384l1.752-.024c.744-.012 1.428-.096 1.776-.192.192-.048.276-.06.48.024l.492.192c.36.132.36.228.312.456-.06.276-.108.36-.504.36zm-40.572 24.612v-10.284c0-.348-.12-.48-.408-.672-.216-.144.036-.636.336-.504l.816.36c.384.168.396.264.396.564v9.144c0 .612-.624 1.26-.864 1.44-.108.084-.276.06-.276-.048zm-2.196-6.228H57.24c-.372 0-.924-.048-.924-.696v-1.596c0-.408-.036-.576-.336-.672-.192-.06-.288-.132-.288-.3v-.396l.684.048h.852c.504 0 1.896-.072 2.196-.108.624-.072.852-.12 1.008-.036l.36.192c.336.18.324.264.252.432-.132.312-.216.324-.672.324h-2.988v1.596c0 .252 0 .384.3.384h.744c.744-.012 1.2-.06 1.56-.144.192-.048.276-.06.48.024l.456.192c.36.144.396.18.348.408-.06.276-.108.348-.504.348zm-1.44 2.676v2.088c0 .312-.408.96-.528 1.116-.132.192-.576.156-.576-.096v-2.916c0-.396-.108-.588-.264-.732-.084.012-.18.024-.252.024-.48.048-1.62.12-2.172.108-.144 0-.372 0-.588-.096-.084-.036-.132-.144-.108-.324l.096-.588c.648.12 1.764.096 2.688.024 1.152-.096 3.048-.276 4.224-.66.06-.024.204.048.3.096.264.132.384.432.204.516-.84.372-2.196.624-3.324.768.288.204.3.42.3.672zm9.876 3.276l-.06-2.952c-.012-.396-.012-.552-.228-.66-.156-.072-.264-.12-.264-.288v-.384l1.068.096c.528.048.516.384.528.816l.048 2.688 3.3-.036c.204 0 .252-.084.252-.3v-1.068l-2.532.048c-.18 0-.264-.024-.348-.156l-.336-.54c-.072-.12.036-.252.216-.204l.276.06c.108.024.336.024.42.024l2.304-.036v-.348c0-.396-.036-.504-.288-.6-.132-.048-.24-.132-.24-.312v-.372l1.116.084c.516.048.516.444.516.876v3.228c0 .288-.144.432-.516.432l-4.128.024v.048a.553.553 0 0 1-.156.348c-.12.12-.288.24-.612.18-.144-.024-.24-.18-.276-.276a1.414 1.414 0 0 1-.06-.42zm1.032-8.208c-.06.144-.12.288-.192.432l1.32.984c.216.168.408.276.684.396.276.12.408.216.528.516l.156.384c.096.24.06.372-.096.492-.216.156-.372.108-.6-.084l-2.376-2.016c-.588.852-1.452 1.632-2.46 2.244-.156.096-.444.252-.696.108-.216-.12-.24-.48-.012-.636 1.752-1.176 2.52-2.424 2.676-3.228.024-.108 0-.192-.06-.24-.096-.072-.18-.144-.36-.24-.312.024-.624.048-.96.06-.408.024-.708.012-.912-.12-.12-.084-.132-.216-.12-.36l.072-.564a11.65 11.65 0 0 0 1.704.156c.432.012.768 0 1.092-.012.552-.024.984-.072 1.536-.132.204-.024.384-.06.504-.06.216 0 .3.036.42.108l.324.18c.276.156.324.24.168.552-.132.264-.216.312-.492.252-.204-.048-.456-.108-.672-.132-.456-.048-.888-.036-1.392-.012.12.084.228.168.264.228.096.156.108.324-.048.744zm3.744 3.192v-4.992c0-.348-.12-.48-.408-.672-.216-.144.036-.636.336-.504l.816.36c.384.168.396.264.396.564v3.852c0 .612-.624 1.26-.864 1.44-.108.084-.276.06-.276-.048zm3.06-.912c0-1.488 1.104-2.52 2.784-2.52 1.644 0 2.772 1.032 2.772 2.52 0 1.524-1.152 2.508-2.772 2.508-1.608 0-2.784-.984-2.784-2.508zm7.692 6.204v-5.928l-1.188.072c-.192.012-.3-.036-.372-.156l-.372-.54c-.06-.108.06-.324.252-.276l.288.072c.12.024.324.036.408.036l.984-.036v-3.528c0-.348-.12-.48-.408-.672-.216-.144.036-.636.336-.504l.816.36c.384.168.396.264.396.564v9.144c0 .612-.624 1.26-.864 1.44-.108.084-.276.06-.276-.048zm-4.908-7.872c-1.02 0-1.632.648-1.632 1.668 0 1.008.612 1.656 1.632 1.656s1.62-.648 1.62-1.656c0-1.02-.612-1.668-1.62-1.668zm15.588 7.872v-6.324l-2.1.108c-.192.012-.3-.036-.372-.156l-.372-.552c-.06-.108.06-.324.252-.276l.288.072c.12.024.324.036.408.036l1.896-.072v-3.12c0-.348-.12-.48-.408-.672-.216-.144.036-.636.336-.504l.816.36c.384.168.396.264.396.564v9.144c0 .612-.624 1.26-.864 1.44-.108.084-.276.06-.276-.048zm-3.756-8.508a8.39 8.39 0 0 1-.624 1.968l1.584 1.596c.228.252.456.36.696.528.252.144.312.204.372.528l.096.468c.06.372.036.408-.18.504-.18.096-.3.072-.516-.156l-2.412-2.76c-.864 1.5-2.004 2.532-2.592 2.88-.096.06-.288.156-.396.144-.192-.012-.336-.204-.372-.36a.411.411 0 0 1 .108-.324c1.092-.804 2.844-2.916 3.084-5.076.012-.12 0-.252-.18-.372l-.252-.168c-.156-.108.06-.588.204-.552.312.072.996.252 1.224.372.18.096.228.36.156.78zm-43.872 18.336c0-1.116.756-2.148 2.46-2.148 1.584 0 2.424 1.032 2.424 2.148 0 1.08-.84 2.112-2.424 2.112-1.704 0-2.46-1.032-2.46-2.112zm6.636 5.856v-7.968c0-.348-.12-.48-.408-.672-.216-.144.036-.636.336-.504l.816.36c.384.168.396.264.396.564v6.828c0 .612-.624 1.26-.864 1.44-.108.084-.276.06-.276-.048zm.96 2.268h-4.848c-.372 0-.924-.06-.924-.708v-1.032c0-.396-.012-.576-.276-.672-.192-.072-.288-.132-.288-.3v-.456l1.152.144c.564.072.552.432.552.864v.936c0 .252 0 .384.3.384h1.776c.744 0 1.428-.096 1.776-.192.192-.048.276-.06.48.024l.492.192c.36.132.36.228.312.456-.06.276-.108.36-.504.36zm-5.784-5.076c-.12-.036-.216-.084-.204-.276l.048-.468 1.116.108c.396.036.42.3.42.456v.444c.864-.12 1.788-.276 2.484-.48.06-.012.204.048.3.096.264.144.396.456.216.528-1.32.492-3.552.744-4.632.864-.48.048-1.56.144-2.112.132-.144 0-.372-.012-.588-.108-.084-.036-.096-.144-.072-.324l.096-.588c.648.12 1.668.108 2.592.048.18-.012.384-.024.6-.048-.012-.216-.06-.324-.264-.384zm.648-4.308c-.888 0-1.32.552-1.32 1.236 0 .684.432 1.248 1.32 1.248.852 0 1.284-.564 1.284-1.248s-.396-1.236-1.284-1.236zm15.312.42c-.084.24-.204.468-.36.696l.516.216c.24.108.444.156.732.24.276.084.372.108.552.42l.168.288c.132.216.132.336.012.456-.132.132-.288.204-.54.06l-1.896-1.116a7.348 7.348 0 0 1-1.128 1.02c.18.096.192.276.192.384v.96c1.524-.06 2.304-.096 3.372-.204.528-.048.84-.084.996.036l.492.396c.204.168.18.312.096.468-.108.204-.204.252-.324.228a8.303 8.303 0 0 0-.816-.132c-.66-.06-2.556-.048-4.176 0l-4.272.156c-.3.012-.864.036-1.092-.024-.132-.036-.204-.168-.168-.36l.132-.684c.672.132 2.256.156 2.556.156.804 0 1.5 0 2.112-.012v-.372c0-.228 0-.36-.108-.444h-.06c-.264-.012-.384-.084-.456-.252-.048-.12.036-.276.132-.336s.204-.12.3-.192l-1.188-.948c-.552.612-1.284 1.128-1.8 1.32-.228.084-.516.06-.624-.18-.06-.132-.012-.276.132-.348.912-.492 1.692-1.368 1.884-2.028.024-.084.024-.168-.048-.24-.072-.06-.132-.132-.252-.216-.084.012-.168.024-.24.024-.336.036-.564.012-.66-.06a.356.356 0 0 1-.156-.372l.084-.504c.6.108.9.144 1.512.12.228-.012.564-.048.792-.072.444-.048.504-.072.672.024l.228.132c.18.108.276.18.312.252 0 0 .012-.012.012-.024l.072-.48c.264.036.516.096 1.032.096.42 0 .864-.048 1.296-.108.396-.06.528-.06.696.036l.252.144c.36.204.396.264.252.54-.132.24-.216.264-.528.204a3.866 3.866 0 0 0-.576-.072c-.144 0-.252-.012-.336-.024l.084.084c.108.12.264.252.132.648zm.924 5.784v2.028c0 .612-.624 1.26-.864 1.44-.108.084-.276.06-.276-.048v-2.796l-1.356.024c-.108 0-1.152.036-1.404.048-1.128.036-1.632.096-1.824.096-.132 0-.408.024-.6-.096-.096-.048-.096-.192-.084-.324l.06-.648c.636.084 1.464.12 2.388.12.744 0 1.32-.012 1.476-.024l2.184-.072c.108 0 .168.036.216.072.072.06.084.132.084.18zm-3.3-6.684a.327.327 0 0 1-.072.144c-.12.252-.228.252-.528.192a3.134 3.134 0 0 0-.6-.072h-.096l.036.036c.084.12.216.288.048.72-.048.132-.12.264-.192.384l.408.264c.156.108.384.204.48.252.3.12.384.18.516.492l.012.024c.696-.612 1.152-1.296 1.248-1.764.012-.048 0-.132-.072-.204-.06-.048-.12-.12-.228-.192h-.06c-.396.036-.648-.012-.744-.084-.083-.047-.142-.106-.155-.188l-.001-.004zm13.452 2.568a6.499 6.499 0 0 1-.336.888l1.572 1.536c.168.168.408.3.624.408.288.168.396.204.48.564l.108.456c.06.264.012.384-.18.48-.252.132-.432.084-.624-.132l-2.352-2.592c-.588.996-1.452 2.088-2.472 2.82-.132.096-.252.156-.384.156-.288 0-.42-.06-.516-.276-.06-.12.06-.312.156-.384 1.824-1.344 2.796-3.372 2.904-4.356.012-.096 0-.156-.048-.204-.06-.048-.144-.12-.276-.192-.444.024-.876.072-1.32.108-.396.036-.744-.024-.84-.108-.132-.096-.192-.204-.168-.36l.084-.6c.732.12 1.296.156 1.8.168.42.012.852-.012 1.296-.036a88.322 88.322 0 0 0 1.704-.12c.588-.06.732-.06.936.06l.36.228c.252.168.264.24.12.528-.132.264-.24.3-.504.228-.204-.06-.408-.12-.624-.132a23.433 23.433 0 0 0-1.596-.036c.084.06.144.12.168.168.084.144.036.324-.072.732zm3.552 7.344v-10.284c0-.348-.12-.48-.408-.672-.216-.144.036-.636.336-.504l.816.36c.384.168.396.264.396.564v4.896l.252-.012c.252-.012.396-.024.78-.132.324-.096.408-.18.66-.024l.612.372c.132.072.156.192.06.312l-.228.264c-.096.12-.288.132-.444.084a1.163 1.163 0 0 0-.432-.072h-1.26v3.456c0 .612-.624 1.26-.864 1.44-.108.084-.276.06-.276-.048zm10.332-.6V147.3l-.612.024c-.192.012-.3-.036-.372-.156l-.264-.384v.12c0 1.368-1.08 2.34-2.532 2.34-1.548 0-2.544-.972-2.544-2.34 0-1.332.996-2.34 2.544-2.34 1.296 0 2.256.756 2.484 1.836a.245.245 0 0 1 .192-.048l.288.072c.12.024.324.036.408.036h.408v-3.036c0-.348-.12-.48-.408-.672-.216-.144.012-.636.312-.504l.792.36c.384.168.396.264.396.564v7.704c0 .612-.576 1.26-.816 1.44-.108.084-.276.06-.276-.048zm2.112.6v-10.284c0-.348-.12-.48-.408-.672-.216-.144.012-.636.312-.504l.792.36c.384.168.396.264.396.564v9.144c0 .612-.576 1.26-.816 1.44-.108.084-.276.06-.276-.048zm-5.892-7.452c-.912 0-1.416.576-1.416 1.488s.552 1.488 1.416 1.488c.9 0 1.404-.576 1.404-1.488s-.504-1.488-1.404-1.488zm16.812 7.452v-10.284c0-.348-.12-.48-.408-.672-.216-.144.012-.636.312-.504l.792.36c.384.168.396.264.396.564v9.144c0 .612-.576 1.26-.816 1.44-.108.084-.276.06-.276-.048zm-2.196-.6v-4.92l-.792.06c-.192.012-.3-.036-.372-.156l-.372-.6c-.06-.108.06-.324.252-.276l.288.072c.12.024.324.036.408.036l.588-.012v-3.048c0-.348-.12-.48-.408-.672-.216-.144.012-.636.312-.504l.792.36c.384.168.396.264.396.564v7.704c0 .612-.576 1.26-.816 1.44-.108.084-.276.06-.276-.048zm-2.208-8.172h.036c.204 0 .48.096.636.216.06.048.084.108.084.156l-.024.432c-.06 1.116-.72 4.32-1.296 5.412-.276.516-1.14.312-.948-.168.504-1.284 1.008-3.516 1.08-5.124-.144.012-.3.024-.636.024-.792.024-1.128.06-1.92.12-.384.024-.696-.012-.78-.048-.108-.048-.168-.144-.132-.348l.108-.66c.492.072 1.26.144 1.548.144.444 0 .684-.012 1.188-.036.408-.024.66-.084 1.056-.12zm-59.508 16.632v7.38l1.416.156v.624h-3.888v-.624l1.368-.156v-6l-1.32.54-.24-.588 2.1-1.332h.564zm5.784 8.244c0-1.236.876-2.28 2.58-2.28 1.584 0 2.544 1.044 2.544 2.28 0 1.116-.876 2.244-2.544 2.244-1.704 0-2.58-1.104-2.58-2.244zm.732-6.444a3.84 3.84 0 0 1-.312.72l1.332.948c.264.192.444.24.696.348.288.12.444.204.588.504l.156.336c.096.216.048.396-.084.492-.228.144-.396.18-.6.012l-2.484-1.992c-.552.768-1.332 1.488-2.328 2.124-.204.132-.588.3-.792-.024-.096-.144-.048-.372.108-.48 1.92-1.32 2.58-2.724 2.64-3.372.012-.072 0-.156-.024-.192-.072-.06-.168-.144-.324-.24l-1.02.084c-.42.024-.708.036-.912-.12-.12-.084-.144-.216-.12-.36l.084-.564a11.5 11.5 0 0 0 1.692.156c.432.012.648 0 .972-.012.552-.024 1.128-.06 1.68-.144.204-.036.36-.048.48-.048.216 0 .3.036.42.108l.324.18c.276.156.276.264.144.552-.12.264-.192.312-.468.252-.204-.048-.408-.12-.624-.132a10.852 10.852 0 0 0-1.404-.024c.084.06.156.132.192.168.096.156.12.3-.012.72zm3.42 3.948v-5.892c0-.348-.12-.48-.408-.672-.216-.144.036-.636.336-.504l.816.36c.384.168.396.264.396.564v3.024l.18-.012c.252-.012.396-.024.78-.132.324-.096.408-.18.66-.024l.612.372c.132.072.156.192.06.312l-.228.264c-.096.12-.288.132-.444.084a1.163 1.163 0 0 0-.432-.072h-1.188v.936c0 .612-.624 1.26-.864 1.44-.108.084-.276.06-.276-.048zM48 167.617c-.948 0-1.44.576-1.44 1.332 0 .756.492 1.344 1.44 1.344.936 0 1.404-.588 1.404-1.344 0-.72-.468-1.332-1.404-1.332zm14.604 1.692l-4.272.156c-.3.012-.864.036-1.092-.024-.132-.036-.204-.168-.168-.36l.132-.684c.672.132 2.256.156 2.556.156h1.32v-2.808c0-.324-.024-.408-.336-.504a.348.348 0 0 1-.24-.384l.036-.36 1.224.12c.42.048.444.3.444.456v3.456c.144 0 .276 0 .42-.012 1.752-.06 2.568-.096 3.708-.204.528-.048.852-.096.996.036l.492.396c.204.168.18.312.096.468-.108.204-.204.252-.324.228a8.303 8.303 0 0 0-.816-.132c-.66-.06-2.556-.048-4.176 0zm3.312-7.452l-.036.348c-.156 1.116-.564 3.456-1.128 4.62-.264.528-.972.288-.84-.18.432-1.464.708-3 .804-4.296l-5.028.072a3.47 3.47 0 0 1-.672-.072c-.24-.06-.3-.216-.264-.42l.12-.612c.636.204 1.776.252 2.304.252.408 0 1.212-.024 1.752-.036.732-.024 1.428-.06 2.208-.096.228-.048.564 0 .708.216.048.072.084.132.072.204zm9.336.18l-3.444.048c-.18 0-.42 0-.6.012-.168.012-.552.036-.696-.024-.192-.084-.288-.264-.264-.408l.108-.54a11.8 11.8 0 0 0 2.04.156c1.164 0 2.364-.06 3.528-.072.18 0 .372.024.456.12.072.072.144.168.144.384v2.16c0 .348-.204.528-.72.528l-4.068.048v1.356c0 .216.072.288.3.288h2.136c.624 0 1.296-.096 1.608-.18a.764.764 0 0 1 .516.024l.42.168c.336.132.408.192.348.48s-.144.336-.516.336h-4.74c-.42 0-1.176-.084-1.176-.816v-1.308c0-.24 0-.372-.12-.42-.216-.096-.372-.252-.372-.456v-.36l.9.072c.024 0 .048.012.06.012l4.164-.072c.132 0 .156-.048.156-.192v-1.188c0-.12-.024-.156-.168-.156zm-1.368 7.32l-4.272.156c-.3.012-.864.036-1.092-.024-.132-.036-.204-.168-.168-.36l.132-.684c.672.132 2.256.156 2.556.156a94.76 94.76 0 0 0 2.868-.036c1.752-.06 2.568-.096 3.708-.204.528-.048.852-.096.996.036l.492.396c.204.168.18.312.096.468-.108.204-.204.252-.324.228a8.303 8.303 0 0 0-.816-.132c-.66-.06-2.556-.048-4.176 0zm13.944 1.512v-10.284c0-.348-.12-.48-.408-.672-.216-.144.012-.636.312-.504l.792.36c.384.168.396.264.396.564v9.144c0 .612-.576 1.26-.816 1.44-.108.084-.276.06-.276-.048zm-2.196-.6v-4.92l-.792.06c-.192.012-.3-.036-.372-.156l-.372-.6c-.06-.108.06-.324.252-.276l.288.072c.12.024.324.036.408.036l.588-.012v-3.048c0-.348-.12-.48-.408-.672-.216-.144.012-.636.312-.504l.792.36c.384.168.396.264.396.564v7.704c0 .612-.576 1.26-.816 1.44-.108.084-.276.06-.276-.048zm-2.208-8.172h.036c.204 0 .48.096.636.216.06.048.084.108.084.156l-.024.432c-.06 1.116-.72 4.32-1.296 5.412-.276.516-1.14.312-.948-.168.504-1.284 1.008-3.516 1.08-5.124-.144.012-.3.024-.636.024-.792.024-1.128.06-1.92.12-.384.024-.696-.012-.78-.048-.108-.048-.168-.144-.132-.348l.108-.66c.492.072 1.26.144 1.548.144.444 0 .684-.012 1.188-.036.408-.024.66-.084 1.056-.12zm11.928 3.9c0-1.452 1.104-2.304 2.556-2.304 1.344 0 2.52.852 2.52 2.304 0 1.356-1.068 2.232-2.52 2.232s-2.556-.876-2.556-2.232zm6.588 4.872v-10.284c0-.348-.12-.48-.408-.672-.216-.144.036-.636.336-.504l.816.36c.384.168.396.264.396.564v5.052l.204-.012c.252-.012.396-.024.78-.132.324-.096.408-.18.66-.024l.612.372c.132.072.156.192.06.312l-.228.264c-.096.12-.288.132-.444.084a1.163 1.163 0 0 0-.432-.072h-1.212v3.3c0 .612-.624 1.26-.864 1.44-.108.084-.276.06-.276-.048zm-2.448-7.788c-.912 0-1.692.048-2.748.108l-1.284.06c-.384.024-.744 0-.9-.096-.156-.108-.192-.228-.156-.396l.108-.588c.732.132 1.344.168 1.848.168h.996v-.804c0-.324-.024-.372-.264-.576-.156-.132.06-.54.192-.504l.816.252c.396.12.396.264.396.564v1.032c.492-.024.984-.072 1.5-.144.624-.072.732-.048.924.072l.312.192c.3.18.3.276.156.54-.132.24-.204.324-.492.264-.192-.048-.384-.096-.612-.12-.252-.024-.516-.024-.792-.024zm-1.584 1.488c-.936 0-1.452.552-1.452 1.416 0 .828.66 1.368 1.452 1.368.924 0 1.416-.54 1.416-1.368 0-.864-.516-1.416-1.416-1.416zm9.948.552v2.184c0 .072.072.12.12.12 1.788-.096 3.228-.456 4.26-.936.072-.036.192-.048.348.06.228.156.42.408.108.564-1.68.876-3.324 1.128-4.812 1.272-.108.012-.444.012-.564.012-.216 0-.564-.324-.564-.564v-2.088c0-.324.024-.492-.228-.612a.43.43 0 0 1-.264-.384v-.516l.984.06 2.724-.048c.18 0 .252-.084.252-.3l.024-1.368c0-.216-.012-.24-.24-.228l-2.172.06a8.87 8.87 0 0 0-.576.024c-.132.012-.636.036-.816-.072-.084-.06-.108-.144-.096-.264l.084-.66c.612.12 1.596.132 2.52.108l2.052-.06c.132 0 .276 0 .348.072.072.072.096.144.084.324l-.168 2.784c-.024.276-.156.42-.528.42l-2.88.036zm5.388 5.748v-10.284c0-.348-.12-.48-.408-.672-.216-.144.036-.636.336-.504l.816.36c.384.168.396.264.396.564v4.86l.144-.012c.252-.012.396-.024.78-.132.324-.096.408-.18.66-.024l.612.372c.132.072.156.192.06.312l-.228.264c-.096.12-.288.132-.444.084a1.163 1.163 0 0 0-.432-.072h-1.152v3.492c0 .612-.624 1.26-.864 1.44-.108.084-.276.06-.276-.048z"/>
        </g>
    </g>
</svg>
